<svg width="24" height="24" viewBox="0 0 24 24" stroke-width="1.5" fill="none" xmlns="http://www.w3.org/2000/svg">
<path fill-rule="evenodd" clip-rule="evenodd" d="M3 9.25C2.58579 9.25 2.25 9.58579 2.25 10V19C2.25 20.5188 3.48122 21.75 5 21.75H15.568L14.409 20.591C13.5303 19.7123 13.5303 18.2877 14.409 17.409C15.0421 16.776 15.9585 16.599 16.75 16.8781V16C16.75 14.7574 17.7574 13.75 19 13.75C20.2426 13.75 21.25 14.7574 21.25 16V16.8107L21.5303 16.5303C21.671 16.3897 21.75 16.1989 21.75 16V10C21.75 9.58579 21.4142 9.25 21 9.25H3Z" fill="currentColor"/>
<path fill-rule="evenodd" clip-rule="evenodd" d="M7 1.25C7.41421 1.25 7.75 1.58579 7.75 2V6C7.75 6.41421 7.41421 6.75 7 6.75C6.58579 6.75 6.25 6.41421 6.25 6V4.75H5C4.30964 4.75 3.75 5.30964 3.75 6V10C3.75 10.4142 3.41421 10.75 3 10.75C2.58579 10.75 2.25 10.4142 2.25 10V6C2.25 4.48122 3.48122 3.25 5 3.25H6.25V2C6.25 1.58579 6.58579 1.25 7 1.25ZM15 1.25C15.4142 1.25 15.75 1.58579 15.75 2V6C15.75 6.41421 15.4142 6.75 15 6.75C14.5858 6.75 14.25 6.41421 14.25 6V4.75H10.5C10.0858 4.75 9.75 4.41421 9.75 4C9.75 3.58579 10.0858 3.25 10.5 3.25H14.25V2C14.25 1.58579 14.5858 1.25 15 1.25ZM17.75 4C17.75 3.58579 18.0858 3.25 18.5 3.25H19C20.5188 3.25 21.75 4.48122 21.75 6V10C21.75 10.4142 21.4142 10.75 21 10.75C20.5858 10.75 20.25 10.4142 20.25 10V6C20.25 5.30964 19.6904 4.75 19 4.75H18.5C18.0858 4.75 17.75 4.41421 17.75 4Z" fill="currentColor"/>
<path fill-rule="evenodd" clip-rule="evenodd" d="M18.4697 22.5303C18.7626 22.8232 19.2374 22.8232 19.5303 22.5303L22.5303 19.5303C22.8232 19.2374 22.8232 18.7626 22.5303 18.4697C22.2374 18.1768 21.7626 18.1768 21.4697 18.4697L19.75 20.1893V16C19.75 15.5858 19.4142 15.25 19 15.25C18.5858 15.25 18.25 15.5858 18.25 16V20.1893L16.5303 18.4697C16.2374 18.1768 15.7626 18.1768 15.4697 18.4697C15.1768 18.7626 15.1768 19.2374 15.4697 19.5303L18.4697 22.5303Z" fill="currentColor"/>
</svg>
