<svg width="24" height="24" viewBox="0 0 24 24" stroke-width="1.5" fill="none" xmlns="http://www.w3.org/2000/svg">
<path fill-rule="evenodd" clip-rule="evenodd" d="M7.72 2.79L5.5 5.75C5.26393 6.06475 4.89344 6.25 4.5 6.25H4C2.48122 6.25 1.25 7.48122 1.25 9V19C1.25 20.5188 2.48122 21.75 4 21.75H20C21.5188 21.75 22.75 20.5188 22.75 19V9C22.75 7.48122 21.5188 6.25 20 6.25H19.5C19.1066 6.25 18.7361 6.06474 18.5 5.75L16.28 2.79C16.0251 2.45007 15.625 2.25 15.2 2.25H8.8C8.37508 2.25 7.97495 2.45007 7.72 2.79ZM12 8.25C9.37664 8.25 7.25 10.3767 7.25 13C7.25 15.6233 9.37664 17.75 12 17.75C14.6233 17.75 16.75 15.6233 16.75 13C16.75 10.3767 14.6233 8.25 12 8.25Z" fill="currentColor"/>
</svg>
