<svg width="24" height="24" viewBox="0 0 24 24" fill="none" xmlns="http://www.w3.org/2000/svg">
<path fill-rule="evenodd" clip-rule="evenodd" d="M12 1.25C6.06294 1.25 1.25 6.06294 1.25 12C1.25 13.8563 1.72113 15.6046 2.55076 17.1298L1.76267 21.3627C1.71742 21.6058 1.79485 21.8555 1.96967 22.0303C2.14448 22.2051 2.39422 22.2826 2.63727 22.2373L6.87016 21.4493C8.39536 22.2788 10.1437 22.75 12 22.75C17.937 22.75 22.75 17.937 22.75 12C22.75 6.06293 17.937 1.25 12 1.25ZM9 11.25C8.58579 11.25 8.25 11.5858 8.25 12C8.25 12.4142 8.58579 12.75 9 12.75H12H15C15.4142 12.75 15.75 12.4142 15.75 12C15.75 11.5858 15.4142 11.25 15 11.25H12H9Z" fill="currentColor"/>
</svg>
