<svg width="24" height="24" viewBox="0 0 24 24" fill="none" xmlns="http://www.w3.org/2000/svg">
<path fill-rule="evenodd" clip-rule="evenodd" d="M12 1.25C6.06294 1.25 1.25 6.06294 1.25 12C1.25 13.8563 1.72113 15.6046 2.55076 17.1298L1.76267 21.3627C1.71742 21.6058 1.79485 21.8555 1.96967 22.0303C2.14448 22.2051 2.39422 22.2826 2.63727 22.2373L6.87016 21.4493C8.39536 22.2788 10.1437 22.75 12 22.75C17.937 22.75 22.75 17.937 22.75 12C22.75 6.06293 17.937 1.25 12 1.25ZM17 10.75C16.3097 10.75 15.75 11.3097 15.75 12C15.75 12.6903 16.3097 13.25 17 13.25C17.6903 13.25 18.25 12.6903 18.25 12C18.25 11.3097 17.6903 10.75 17 10.75ZM10.75 12C10.75 11.3097 11.3097 10.75 12 10.75C12.6903 10.75 13.25 11.3097 13.25 12C13.25 12.6903 12.6903 13.25 12 13.25C11.3097 13.25 10.75 12.6903 10.75 12ZM7 10.75C6.30961 10.75 5.75 11.3097 5.75 12C5.75 12.6903 6.30961 13.25 7 13.25C7.69039 13.25 8.25 12.6903 8.25 12C8.25 11.3097 7.69039 10.75 7 10.75Z" fill="currentColor"/>
</svg>
