<svg width="24" height="24" viewBox="0 0 24 24" fill="none" xmlns="http://www.w3.org/2000/svg">
<path fill-rule="evenodd" clip-rule="evenodd" d="M1.25 12C1.25 6.06294 6.06294 1.25 12 1.25C17.937 1.25 22.75 6.06293 22.75 12C22.75 17.937 17.937 22.75 12 22.75C10.1437 22.75 8.39536 22.2788 6.87016 21.4493L2.63727 22.2373C2.39422 22.2826 2.14448 22.2051 1.96967 22.0303C1.79485 21.8555 1.71742 21.6058 1.76267 21.3627L2.55076 17.1298C1.72113 15.6046 1.25 13.8563 1.25 12ZM7.25 10C7.25 9.58579 7.58579 9.25 8 9.25H12H16C16.4142 9.25 16.75 9.58579 16.75 10C16.75 10.4142 16.4142 10.75 16 10.75H12H8C7.58579 10.75 7.25 10.4142 7.25 10ZM8 13.25C7.58579 13.25 7.25 13.5858 7.25 14C7.25 14.4142 7.58579 14.75 8 14.75H10H12C12.4142 14.75 12.75 14.4142 12.75 14C12.75 13.5858 12.4142 13.25 12 13.25H10H8Z" fill="currentColor"/>
</svg>
