<svg width="24" height="24" viewBox="0 0 24 24" stroke-width="1.5" fill="none" xmlns="http://www.w3.org/2000/svg">
<path fill-rule="evenodd" clip-rule="evenodd" d="M0.25 9C0.25 5.27208 3.27208 2.25 7 2.25H17C20.7279 2.25 23.75 5.27208 23.75 9V15C23.75 18.7279 20.7279 21.75 17 21.75H7C3.27208 21.75 0.25 18.7279 0.25 15V9ZM4.75 11.8284C4.75 9.85208 6.35213 8.25 8.32843 8.25C9.27745 8.25 10.1876 8.62698 10.8587 9.29805L10.8587 9.29811L11.0303 9.46962C11.3232 9.76249 11.3232 10.2374 11.0304 10.5303C10.7375 10.8232 10.2626 10.8232 9.96972 10.5304L9.79812 10.3588L9.79805 10.3587C9.40831 9.96897 8.87966 9.75 8.32843 9.75C7.18053 9.75 6.25 10.6805 6.25 11.8284V12.1716C6.25 13.3195 7.18053 14.25 8.32843 14.25C8.87966 14.25 9.40831 14.031 9.79807 13.6413L9.96967 13.4697C10.2626 13.1768 10.7374 13.1768 11.0303 13.4697C11.3232 13.7626 11.3232 14.2374 11.0303 14.5303L10.8587 14.7019C10.1877 15.373 9.27748 15.75 8.32843 15.75C6.35213 15.75 4.75 14.1479 4.75 12.1716V11.8284ZM16.3284 8.25C14.3521 8.25 12.75 9.85209 12.75 11.8284V12.1716C12.75 14.1479 14.3521 15.75 16.3284 15.75C17.2775 15.75 18.1877 15.373 18.8587 14.7019L19.0303 14.5303C19.3232 14.2374 19.3232 13.7626 19.0303 13.4697C18.7374 13.1768 18.2626 13.1768 17.9697 13.4697L17.7981 13.6413C17.4083 14.031 16.8797 14.25 16.3284 14.25C15.1805 14.25 14.25 13.3195 14.25 12.1716V11.8284C14.25 10.6805 15.1805 9.75 16.3284 9.75C16.8797 9.75 17.4084 9.96904 17.7981 10.3588L17.9697 10.5304C18.2626 10.8232 18.7375 10.8232 19.0304 10.5303C19.3232 10.2374 19.3232 9.76249 19.0303 9.46962L18.8587 9.29805C18.1876 8.62698 17.2775 8.25 16.3284 8.25Z" fill="currentColor"/>
</svg>
