<svg width="24" height="24" viewBox="0 0 24 24" stroke-width="1.5" fill="none" xmlns="http://www.w3.org/2000/svg">
<path fill-rule="evenodd" clip-rule="evenodd" d="M12 1.25C17.9371 1.25 22.75 6.06294 22.75 12C22.75 17.9371 17.9371 22.75 12 22.75C6.06294 22.75 1.25 17.9371 1.25 12C1.25 6.06294 6.06294 1.25 12 1.25ZM17.605 7.4143C17.7676 7.12158 17.7165 6.75652 17.4797 6.51974C17.2429 6.28296 16.8779 6.23183 16.5851 6.39445L10.2212 9.92999C10.0987 9.998 9.99781 10.0989 9.92979 10.2214L6.39426 16.5853C6.23163 16.8781 6.28276 17.2431 6.51955 17.4799C6.75633 17.7167 7.12139 17.7678 7.41411 17.6052L13.7781 14.0696C13.9005 14.0016 14.0014 13.9007 14.0695 13.7783L17.605 7.4143Z" fill="currentColor"/>
</svg>
