<svg width="24" height="24" viewBox="0 0 24 24" stroke-width="1.5" fill="none" xmlns="http://www.w3.org/2000/svg">
<path fill-rule="evenodd" clip-rule="evenodd" d="M12 1.25C17.9371 1.25 22.75 6.06294 22.75 12C22.75 17.9371 17.9371 22.75 12 22.75C6.06294 22.75 1.25 17.9371 1.25 12C1.25 6.06294 6.06294 1.25 12 1.25ZM8.53033 14.4697C8.82322 14.7626 8.82322 15.2374 8.53033 15.5303C8.23744 15.8232 7.76256 15.8232 7.46967 15.5303L4.46967 12.5303C4.17678 12.2374 4.17678 11.7626 4.46967 11.4697L7.46967 8.46967C7.76256 8.17678 8.23744 8.17678 8.53033 8.46967C8.82322 8.76256 8.82322 9.23744 8.53033 9.53033L6.81066 11.25H17.1893L15.4697 9.53033C15.1768 9.23744 15.1768 8.76256 15.4697 8.46967C15.7626 8.17678 16.2374 8.17678 16.5303 8.46967L19.5303 11.4697C19.8232 11.7626 19.8232 12.2374 19.5303 12.5303L16.5303 15.5303C16.2374 15.8232 15.7626 15.8232 15.4697 15.5303C15.1768 15.2374 15.1768 14.7626 15.4697 14.4697L17.1893 12.75H6.81066L8.53033 14.4697Z" fill="currentColor"/>
</svg>
