<svg width="24" height="24" viewBox="0 0 24 24" stroke-width="1.5" fill="none" xmlns="http://www.w3.org/2000/svg">
<path fill-rule="evenodd" clip-rule="evenodd" d="M2.25 7C2.25 6.58579 2.58579 6.25 3 6.25H7C10.1756 6.25 12.75 8.82441 12.75 12V21C12.75 21.4142 12.4142 21.75 12 21.75C11.5858 21.75 11.25 21.4142 11.25 21V12C11.25 9.65283 9.3472 7.75 7 7.75H3C2.58579 7.75 2.25 7.41421 2.25 7Z" fill="currentColor"/>
<path fill-rule="evenodd" clip-rule="evenodd" d="M17 7.75C14.6528 7.75 12.75 9.65283 12.75 12V21C12.75 21.4142 12.4142 21.75 12 21.75C11.5858 21.75 11.25 21.4142 11.25 21V12C11.25 8.82441 13.8244 6.25 17 6.25H21C21.4142 6.25 21.75 6.58579 21.75 7C21.75 7.41421 21.4142 7.75 21 7.75H17Z" fill="currentColor"/>
<path fill-rule="evenodd" clip-rule="evenodd" d="M7.28701 2.30711C7.56727 2.4232 7.75 2.69668 7.75 3.00002V11C7.75 11.3034 7.56727 11.5768 7.28701 11.6929C7.00676 11.809 6.68417 11.7449 6.46967 11.5304L2.46967 7.53035C2.17678 7.23746 2.17678 6.76259 2.46967 6.46969L6.46967 2.46969C6.68417 2.25519 7.00676 2.19103 7.28701 2.30711Z" fill="currentColor"/>
<path fill-rule="evenodd" clip-rule="evenodd" d="M16.713 2.30711C16.4327 2.4232 16.25 2.69668 16.25 3.00002V11C16.25 11.3034 16.4327 11.5768 16.713 11.6929C16.9932 11.809 17.3158 11.7449 17.5303 11.5304L21.5303 7.53035C21.8232 7.23746 21.8232 6.76259 21.5303 6.46969L17.5303 2.46969C17.3158 2.25519 16.9932 2.19103 16.713 2.30711Z" fill="currentColor"/>
</svg>
