<svg width="24" height="24" viewBox="0 0 24 24" fill="none" xmlns="http://www.w3.org/2000/svg">
<path fill-rule="evenodd" clip-rule="evenodd" d="M1.25 8C1.25 4.27208 4.27208 1.25 8 1.25H16C19.7279 1.25 22.75 4.27208 22.75 8V16C22.75 19.7279 19.7279 22.75 16 22.75H8C4.27208 22.75 1.25 19.7279 1.25 16V8ZM5.25 11C5.25 9.48122 6.48122 8.25 8 8.25H11C12.4373 8.25 13.6169 9.35253 13.7395 10.7579L16.5899 8.62008C17.4799 7.95267 18.7499 8.58762 18.7499 9.70011V14.3001C18.7499 15.4124 17.48 16.0477 16.5899 15.3801L13.7395 13.2423C13.6168 14.6476 12.4372 15.75 11 15.75H8C6.48122 15.75 5.25 14.5188 5.25 13V11Z" fill="currentColor"/>
</svg>
