<svg width="24" height="24" viewBox="0 0 24 24" stroke-width="1.5" fill="none" xmlns="http://www.w3.org/2000/svg">
<path fill-rule="evenodd" clip-rule="evenodd" d="M12 1.25C6.06294 1.25 1.25 6.06294 1.25 12C1.25 17.9371 6.06294 22.75 12 22.75C17.9371 22.75 22.75 17.9371 22.75 12C22.75 6.06294 17.9371 1.25 12 1.25ZM12.1089 6.25C8.88798 6.25 6.25 8.8097 6.25 12C6.25 15.1903 8.88798 17.75 12.1089 17.75C14.051 17.75 15.4498 17.0204 16.3707 15.9532C17.2716 14.9091 17.6697 13.5969 17.7482 12.4687L17.804 11.6667H12.841V13.1667H16.1291C15.9762 13.8087 15.6873 14.4492 15.2351 14.9732C14.6127 15.6945 13.636 16.25 12.1089 16.25C9.68593 16.25 7.75 14.3317 7.75 12C7.75 9.66828 9.68593 7.75 12.1089 7.75C13.2437 7.75 14.275 8.1725 15.048 8.86272L16.047 7.74382C15.0065 6.81472 13.622 6.25 12.1089 6.25Z" fill="currentColor"/>
</svg>
