<svg width="24" height="24" viewBox="0 0 24 24" fill="none" xmlns="http://www.w3.org/2000/svg">
<path fill-rule="evenodd" clip-rule="evenodd" d="M12 1.25C6.06294 1.25 1.25 6.06294 1.25 12C1.25 17.9371 6.06294 22.75 12 22.75C17.9371 22.75 22.75 17.9371 22.75 12C22.75 6.06294 17.9371 1.25 12 1.25ZM8.75 7C8.75 6.58579 8.41421 6.25 8 6.25C7.58579 6.25 7.25 6.58579 7.25 7V12V17C7.25 17.4142 7.58579 17.75 8 17.75C8.41421 17.75 8.75 17.4142 8.75 17V12.75H8.76562H8.78125H8.79688H8.8125H8.82812H8.84375H8.85938H8.875H8.89062H8.90625H8.92188H8.9375H8.95312H8.96875H8.98438H9H9.01562H9.03125H9.04688H9.0625H9.07812H9.09375H9.10938H9.125H9.14062H9.15625H9.17188H9.1875H9.20312H9.21875H9.23438H9.25H9.26562H9.28125H9.29688H9.3125H9.32812H9.34375H9.35938H9.375H9.39062H9.40625H9.42188H9.4375H9.45312H9.46875H9.48438H9.5H9.51562H9.53125H9.54688H9.5625H9.57812H9.59375H9.60938H9.625H9.64062H9.65625H9.67188H9.6875H9.70312H9.71875H9.73438H9.75H9.76562H9.78125H9.79688H9.8125H9.82812H9.84375H9.85938H9.875H9.89062H9.90625H9.92188H9.9375H9.95312H9.96875H9.98438H10H10.0156H10.0312H10.0469H10.0625H10.0781H10.0938H10.1094H10.125H10.1406H10.1562H10.1719H10.1875H10.2031H10.2188H10.2344H10.25H10.2656H10.2812H10.2969H10.3125H10.3281H10.3438H10.3594H10.375H10.3906H10.4062H10.4219H10.4375H10.4531H10.4688H10.4844H10.5H10.5156H10.5312H10.5469H10.5625H10.5781H10.5938H10.6094H10.625H10.6406H10.6562H10.6719H10.6875H10.7031H10.7188H10.7344H10.75H10.7656H10.7812H10.7969H10.8125H10.8281H10.8438H10.8594H10.875H10.8906H10.9062H10.9219H10.9375H10.9531H10.9688H10.9844H11H11.0156H11.0312H11.0469H11.0625H11.0781H11.0938H11.1094H11.125H11.1406H11.1562H11.1719H11.1875H11.2031H11.2188H11.2344H11.25H11.2656H11.2812H11.2969H11.3125H11.3281H11.3438H11.3594H11.375H11.3906H11.4062H11.4219H11.4375H11.4531H11.4688H11.4844H11.5H11.5156H11.5312H11.5469H11.5625H11.5781H11.5938H11.6094H11.625H11.6406H11.6562H11.6719H11.6875H11.7031H11.7188H11.7344H11.75H11.7656H11.7812H11.7969H11.8125H11.8281H11.8438H11.8594H11.875H11.8906H11.9062H11.9219H11.9375H11.9531H11.9688H11.9844H12H12.0156H12.0312H12.0469H12.0625H12.0781H12.0938H12.1094H12.125H12.1406H12.1562H12.1719H12.1875H12.2031H12.2188H12.2344H12.25H12.2656H12.2812H12.2969H12.3125H12.3281H12.3438H12.3594H12.375H12.3906H12.4062H12.4219H12.4375H12.4531H12.4688H12.4844H12.5H12.5156H12.5312H12.5469H12.5625H12.5781H12.5938H12.6094H12.625H12.6406H12.6562H12.6719H12.6875H12.7031H12.7188H12.7344H12.75H12.7656H12.7812H12.7969H12.8125H12.8281H12.8438H12.8594H12.875H12.8906H12.9062H12.9219H12.9375H12.9531H12.9688H12.9844H13H13.0156H13.0312H13.0469H13.0625H13.0781H13.0938H13.1094H13.125H13.1406H13.1562H13.1719H13.1875H13.2031H13.2188H13.2344H13.25H13.2656H13.2812H13.2969H13.3125H13.3281H13.3438H13.3594H13.375H13.3906H13.4062H13.4219H13.4375H13.4531H13.4688H13.4844H13.5H13.5156H13.5312H13.5469H13.5625H13.5781H13.5938H13.6094H13.625H13.6406H13.6562H13.6719H13.6875H13.7031H13.7188H13.7344H13.75H13.7656H13.7812H13.7969H13.8125H13.8281H13.8438H13.8594H13.875H13.8906H13.9062H13.9219H13.9375H13.9531H13.9688H13.9844H14H14.0156H14.0312H14.0469H14.0625H14.0781H14.0938H14.1094H14.125H14.1406H14.1562H14.1719H14.1875H14.2031H14.2188H14.2344H14.25H14.2656H14.2812H14.2969H14.3125H14.3281H14.3438H14.3594H14.375H14.3906H14.4062H14.4219H14.4375H14.4531H14.4688H14.4844H14.5H14.5156H14.5312H14.5469H14.5625H14.5781H14.5938H14.6094H14.625H14.6406H14.6562H14.6719H14.6875H14.7031H14.7188H14.7344H14.75H14.7656H14.7812H14.7969H14.8125H14.8281H14.8438H14.8594H14.875H14.8906H14.9062H14.9219H14.9375H14.9531H14.9688H14.9844H15H15.0156H15.0312H15.0469H15.0625H15.0781H15.0938H15.1094H15.125H15.1406H15.1562H15.1719H15.1875H15.2031H15.2188H15.2344H15.25V17C15.25 17.4142 15.5858 17.75 16 17.75C16.4142 17.75 16.75 17.4142 16.75 17V12V7C16.75 6.58579 16.4142 6.25 16 6.25C15.5858 6.25 15.25 6.58579 15.25 7V11.25H15.2344H15.2188H15.2031H15.1875H15.1719H15.1562H15.1406H15.125H15.1094H15.0938H15.0781H15.0625H15.0469H15.0312H15.0156H15H14.9844H14.9688H14.9531H14.9375H14.9219H14.9062H14.8906H14.875H14.8594H14.8438H14.8281H14.8125H14.7969H14.7812H14.7656H14.75H14.7344H14.7188H14.7031H14.6875H14.6719H14.6562H14.6406H14.625H14.6094H14.5938H14.5781H14.5625H14.5469H14.5312H14.5156H14.5H14.4844H14.4688H14.4531H14.4375H14.4219H14.4062H14.3906H14.375H14.3594H14.3438H14.3281H14.3125H14.2969H14.2812H14.2656H14.25H14.2344H14.2188H14.2031H14.1875H14.1719H14.1562H14.1406H14.125H14.1094H14.0938H14.0781H14.0625H14.0469H14.0312H14.0156H14H13.9844H13.9688H13.9531H13.9375H13.9219H13.9062H13.8906H13.875H13.8594H13.8438H13.8281H13.8125H13.7969H13.7812H13.7656H13.75H13.7344H13.7188H13.7031H13.6875H13.6719H13.6562H13.6406H13.625H13.6094H13.5938H13.5781H13.5625H13.5469H13.5312H13.5156H13.5H13.4844H13.4688H13.4531H13.4375H13.4219H13.4062H13.3906H13.375H13.3594H13.3438H13.3281H13.3125H13.2969H13.2812H13.2656H13.25H13.2344H13.2188H13.2031H13.1875H13.1719H13.1562H13.1406H13.125H13.1094H13.0938H13.0781H13.0625H13.0469H13.0312H13.0156H13H12.9844H12.9688H12.9531H12.9375H12.9219H12.9062H12.8906H12.875H12.8594H12.8438H12.8281H12.8125H12.7969H12.7812H12.7656H12.75H12.7344H12.7188H12.7031H12.6875H12.6719H12.6562H12.6406H12.625H12.6094H12.5938H12.5781H12.5625H12.5469H12.5312H12.5156H12.5H12.4844H12.4688H12.4531H12.4375H12.4219H12.4062H12.3906H12.375H12.3594H12.3438H12.3281H12.3125H12.2969H12.2812H12.2656H12.25H12.2344H12.2188H12.2031H12.1875H12.1719H12.1562H12.1406H12.125H12.1094H12.0938H12.0781H12.0625H12.0469H12.0312H12.0156H12H11.9844H11.9688H11.9531H11.9375H11.9219H11.9062H11.8906H11.875H11.8594H11.8438H11.8281H11.8125H11.7969H11.7812H11.7656H11.75H11.7344H11.7188H11.7031H11.6875H11.6719H11.6562H11.6406H11.625H11.6094H11.5938H11.5781H11.5625H11.5469H11.5312H11.5156H11.5H11.4844H11.4688H11.4531H11.4375H11.4219H11.4062H11.3906H11.375H11.3594H11.3438H11.3281H11.3125H11.2969H11.2812H11.2656H11.25H11.2344H11.2188H11.2031H11.1875H11.1719H11.1562H11.1406H11.125H11.1094H11.0938H11.0781H11.0625H11.0469H11.0312H11.0156H11H10.9844H10.9688H10.9531H10.9375H10.9219H10.9062H10.8906H10.875H10.8594H10.8438H10.8281H10.8125H10.7969H10.7812H10.7656H10.75H10.7344H10.7188H10.7031H10.6875H10.6719H10.6562H10.6406H10.625H10.6094H10.5938H10.5781H10.5625H10.5469H10.5312H10.5156H10.5H10.4844H10.4688H10.4531H10.4375H10.4219H10.4062H10.3906H10.375H10.3594H10.3438H10.3281H10.3125H10.2969H10.2812H10.2656H10.25H10.2344H10.2188H10.2031H10.1875H10.1719H10.1562H10.1406H10.125H10.1094H10.0938H10.0781H10.0625H10.0469H10.0312H10.0156H10H9.98438H9.96875H9.95312H9.9375H9.92188H9.90625H9.89062H9.875H9.85938H9.84375H9.82812H9.8125H9.79688H9.78125H9.76562H9.75H9.73438H9.71875H9.70312H9.6875H9.67188H9.65625H9.64062H9.625H9.60938H9.59375H9.57812H9.5625H9.54688H9.53125H9.51562H9.5H9.48438H9.46875H9.45312H9.4375H9.42188H9.40625H9.39062H9.375H9.35938H9.34375H9.32812H9.3125H9.29688H9.28125H9.26562H9.25H9.23438H9.21875H9.20312H9.1875H9.17188H9.15625H9.14062H9.125H9.10938H9.09375H9.07812H9.0625H9.04688H9.03125H9.01562H9H8.98438H8.96875H8.95312H8.9375H8.92188H8.90625H8.89062H8.875H8.85938H8.84375H8.82812H8.8125H8.79688H8.78125H8.76562H8.75V7Z" fill="currentColor"/>
</svg>
