<svg width="24" height="24" viewBox="0 0 24 24" fill="none" xmlns="http://www.w3.org/2000/svg">
<path fill-rule="evenodd" clip-rule="evenodd" d="M10.75 20C10.75 20.6904 11.3096 21.25 12 21.25C12.6904 21.25 13.25 20.6904 13.25 20V18H14.75V20C14.75 21.5188 13.5188 22.75 12 22.75C10.4812 22.75 9.25 21.5188 9.25 20V18H10.75V20Z" fill="currentColor"/>
<path fill-rule="evenodd" clip-rule="evenodd" d="M4.25 15.9994C4.25 17.5187 5.48192 18.75 7.00101 18.7496C9.51758 18.7491 12.0341 18.7494 14.5508 18.7497L16.9999 18.7499C18.5188 18.75 19.75 17.5188 19.75 16V9C19.75 4.7198 16.2802 1.25 12 1.25C7.71979 1.25 4.25 4.7198 4.25 9V15.9994ZM17.25 12.7499C17.6642 12.7499 18 12.4141 18 11.9999C18 11.5857 17.6642 11.2499 17.25 11.2499H6.75C6.33579 11.2499 6 11.5857 6 11.9999C6 12.4141 6.33579 12.7499 6.75 12.7499H17.25Z" fill="currentColor"/>
</svg>
