<svg width="24" height="24" viewBox="0 0 24 24" stroke-width="1.5" fill="none" xmlns="http://www.w3.org/2000/svg">
<path d="M10.963 6.07266C11.5027 5.425 12.4975 5.425 13.0372 6.07266L17.2562 11.1354C17.6733 11.6361 17.6733 12.3633 17.2562 12.8639L13.0372 17.9267C12.4975 18.5743 11.5027 18.5743 10.963 17.9267L6.74388 12.8639C6.32673 12.3633 6.32687 11.6361 6.74402 11.1354L10.963 6.07266Z" fill="currentColor"/>
<path fill-rule="evenodd" clip-rule="evenodd" d="M12 19.25C12.4142 19.25 12.75 19.5858 12.75 20V22C12.75 22.4142 12.4142 22.75 12 22.75C11.5858 22.75 11.25 22.4142 11.25 22V20C11.25 19.5858 11.5858 19.25 12 19.25Z" fill="currentColor"/>
<path fill-rule="evenodd" clip-rule="evenodd" d="M12 1.25C12.4142 1.25 12.75 1.58579 12.75 2V4C12.75 4.41421 12.4142 4.75 12 4.75C11.5858 4.75 11.25 4.41421 11.25 4V2C11.25 1.58579 11.5858 1.25 12 1.25Z" fill="currentColor"/>
</svg>
