<svg width="24" height="24" viewBox="0 0 24 24" stroke-width="1.5" fill="none" xmlns="http://www.w3.org/2000/svg">
<path d="M10.963 6.07266C11.5027 5.425 12.4975 5.425 13.0372 6.07266L17.2562 11.1354C17.6733 11.6361 17.6733 12.3633 17.2562 12.8639L13.0372 17.9267C12.4975 18.5743 11.5027 18.5743 10.963 17.9267L6.74388 12.8639C6.32673 12.3633 6.32687 11.6361 6.74402 11.1354L10.963 6.07266Z" fill="currentColor"/>
<path fill-rule="evenodd" clip-rule="evenodd" d="M1.25 12C1.25 11.5858 1.58579 11.25 2 11.25H4C4.41421 11.25 4.75 11.5858 4.75 12C4.75 12.4142 4.41421 12.75 4 12.75H2C1.58579 12.75 1.25 12.4142 1.25 12Z" fill="currentColor"/>
<path fill-rule="evenodd" clip-rule="evenodd" d="M19.25 12C19.25 11.5858 19.5858 11.25 20 11.25H22C22.4142 11.25 22.75 11.5858 22.75 12C22.75 12.4142 22.4142 12.75 22 12.75H20C19.5858 12.75 19.25 12.4142 19.25 12Z" fill="currentColor"/>
</svg>
