<svg width="24" height="24" viewBox="0 0 24 24" stroke-width="1.5" fill="none" xmlns="http://www.w3.org/2000/svg">
<path fill-rule="evenodd" clip-rule="evenodd" d="M14.0658 5.18029L12.5606 6.87362L11.4395 5.87707L12.9447 4.18374C14.0386 2.95308 15.9614 2.95308 17.0554 4.18373L22.3794 10.1733C23.3056 11.2152 23.3057 12.7855 22.3795 13.8273M22.3795 13.8273L17.0554 19.8169C15.9614 21.0476 14.0386 21.0477 12.9447 19.8169L11.4395 18.1236L12.5606 17.1271L14.0658 18.8204C14.563 19.3798 15.437 19.3798 15.9342 18.8204L21.2583 12.8308C21.6793 12.3572 21.6793 11.6435 21.2584 11.17L15.9343 5.18029C15.437 4.6209 14.563 4.6209 14.0658 5.18029" fill="currentColor"/>
<path d="M6.94474 4.18374C8.03866 2.95307 9.96152 2.95308 11.0555 4.18374L16.3795 10.1733C17.3057 11.2152 17.3058 12.7855 16.3796 13.8273L11.0555 19.8169C9.96155 21.0476 8.03866 21.0477 6.94474 19.8169L1.62067 13.8273C0.694507 12.7855 0.694485 11.2152 1.62064 10.1734L6.94474 4.18374Z" fill="currentColor"/>
</svg>
