<svg width="24" height="24" viewBox="0 0 24 24" stroke-width="1.5" fill="none" xmlns="http://www.w3.org/2000/svg">
<path fill-rule="evenodd" clip-rule="evenodd" d="M14.9697 17.5303C15.2626 17.8232 15.7375 17.8232 16.0304 17.5303L19.5304 14.0303C19.7449 13.8158 19.809 13.4932 19.6929 13.213C19.5768 12.9327 19.3034 12.75 19 12.75H12C11.6967 12.75 11.4232 12.9327 11.3071 13.213C11.191 13.4932 11.2552 13.8158 11.4697 14.0303L14.9697 17.5303Z" fill="currentColor"/>
<path fill-rule="evenodd" clip-rule="evenodd" d="M15.5 14.75C15.9142 14.75 16.25 14.4142 16.25 14V11C16.25 8.37665 14.1234 6.25 11.5 6.25H4.5C4.08579 6.25 3.75 6.58579 3.75 7C3.75 7.41421 4.08579 7.75 4.5 7.75H11.5C13.2949 7.75 14.75 9.20507 14.75 11V14C14.75 14.4142 15.0858 14.75 15.5 14.75Z" fill="currentColor"/>
</svg>
