<svg width="24" height="24" viewBox="0 0 24 24" fill="none" xmlns="http://www.w3.org/2000/svg">
<path fill-rule="evenodd" clip-rule="evenodd" d="M4 4.25C2.48122 4.25 1.25 5.48122 1.25 7V17C1.25 18.5188 2.48122 19.75 4 19.75H20C21.5188 19.75 22.75 18.5188 22.75 17V7C22.75 5.48122 21.5188 4.25 20 4.25H4ZM7.4301 8.38558C7.09076 8.14804 6.62311 8.23057 6.38558 8.5699C6.14804 8.90924 6.23057 9.37689 6.5699 9.61442L11.5699 13.1144C11.8281 13.2952 12.1719 13.2952 12.4301 13.1144L17.4301 9.61442C17.7694 9.37689 17.852 8.90924 17.6144 8.5699C17.3769 8.23057 16.9092 8.14804 16.5699 8.38558L12 11.5845L7.4301 8.38558Z" fill="currentColor"/>
</svg>
