<svg width="24" height="24" viewBox="0 0 24 24" stroke-width="1.5" fill="none" xmlns="http://www.w3.org/2000/svg">
<path fill-rule="evenodd" clip-rule="evenodd" d="M12 1.25C17.9371 1.25 22.75 6.06294 22.75 12C22.75 17.9371 17.9371 22.75 12 22.75C6.06294 22.75 1.25 17.9371 1.25 12C1.25 6.06294 6.06294 1.25 12 1.25ZM13.5303 9.03033C13.8232 8.73744 13.8232 8.26256 13.5303 7.96967C13.2374 7.67678 12.7626 7.67678 12.4697 7.96967L8.96967 11.4697C8.67678 11.7626 8.67678 12.2374 8.96967 12.5303L12.4697 16.0303C12.7626 16.3232 13.2374 16.3232 13.5303 16.0303C13.8232 15.7374 13.8232 15.2626 13.5303 14.9697L10.5607 12L13.5303 9.03033Z" fill="currentColor"/>
</svg>
