<svg width="24" height="24" viewBox="0 0 24 24" stroke-width="1.5" fill="none" xmlns="http://www.w3.org/2000/svg">
<path fill-rule="evenodd" clip-rule="evenodd" d="M12 1.25C17.9371 1.25 22.75 6.06294 22.75 12C22.75 17.9371 17.9371 22.75 12 22.75C6.06294 22.75 1.25 17.9371 1.25 12C1.25 6.06294 6.06294 1.25 12 1.25ZM9.03033 10.4697C8.73744 10.1768 8.26256 10.1768 7.96967 10.4697C7.67678 10.7626 7.67678 11.2374 7.96967 11.5303L11.4697 15.0303C11.7626 15.3232 12.2374 15.3232 12.5303 15.0303L16.0303 11.5303C16.3232 11.2374 16.3232 10.7626 16.0303 10.4697C15.7374 10.1768 15.2626 10.1768 14.9697 10.4697L12 13.4393L9.03033 10.4697Z" fill="currentColor"/>
</svg>
