<svg width="24" height="24" viewBox="0 0 24 24" stroke-width="1.5" fill="none" xmlns="http://www.w3.org/2000/svg">
<path fill-rule="evenodd" clip-rule="evenodd" d="M15.1297 21.75C18.5691 21.75 21.4586 19.1638 21.8384 15.7454L22.049 13.8497C22.1856 12.6204 22.1856 11.3796 22.049 10.1503L21.8384 8.25459C21.4586 4.83616 18.5691 2.25 15.1297 2.25H8.87018C5.43072 2.25 2.54129 4.83617 2.16147 8.25459L1.95084 10.1503C1.81424 11.3796 1.81424 12.6204 1.95084 13.8497L2.16147 15.7454C2.54129 19.1638 5.43072 21.75 8.87018 21.75H15.1297ZM8.24997 17C8.24997 17.4142 8.58576 17.75 8.99997 17.75C9.41419 17.75 9.74997 17.4142 9.74997 17V13.75H13C15.071 13.75 16.75 12.0711 16.75 10C16.75 7.92893 15.071 6.25 13 6.25L8.99997 6.25C8.80106 6.25 8.6103 6.32902 8.46964 6.46967C8.32899 6.61032 8.24997 6.80109 8.24997 7V17ZM13 12.25H9.74997V7.75L13 7.75C14.2426 7.75 15.25 8.75736 15.25 10C15.25 11.2426 14.2426 12.25 13 12.25Z" fill="currentColor"/>
</svg>
