<svg width="24" height="24" viewBox="0 0 24 24" stroke-width="1.5" fill="none" xmlns="http://www.w3.org/2000/svg">
<path fill-rule="evenodd" clip-rule="evenodd" d="M15.4922 5.24219C15.4922 4.82797 15.828 4.49219 16.2422 4.49219H22.2422C22.6564 4.49219 22.9922 4.82797 22.9922 5.24219C22.9922 5.6564 22.6564 5.99219 22.2422 5.99219H16.2422C15.828 5.99219 15.4922 5.6564 15.4922 5.24219Z" fill="currentColor"/>
<path fill-rule="evenodd" clip-rule="evenodd" d="M4.06343 1.25L7.81435 1.25C8.12672 1.25 8.40638 1.44361 8.51634 1.73599L9.97178 5.60588C10.02 5.73398 10.0322 5.87281 10.0071 6.00735L9.2778 9.91931C10.1742 12.0273 11.6548 13.4439 14.1104 14.7146L17.9754 13.9657C18.1126 13.9391 18.2545 13.9514 18.3851 14.0012L22.2669 15.4804C22.5577 15.5912 22.7498 15.87 22.7498 16.1812L22.7498 19.7655C22.7498 21.391 21.3176 22.7101 19.6424 22.3456C16.5888 21.6811 10.9315 19.9923 6.9695 16.0303C3.17436 12.2352 1.90282 6.99252 1.47478 4.15869C1.23055 2.54172 2.52735 1.25 4.06343 1.25Z" fill="currentColor"/>
</svg>
