<svg width="24" height="24" viewBox="0 0 24 24" fill="none" xmlns="http://www.w3.org/2000/svg">
<path d="M6 19.0007C3.57111 17.1763 2 14.2716 2 11C2 5.47715 6.47715 1 12 1C17.5228 1 22 5.47715 22 11C22 14.2716 20.4289 17.1763 18 19.0007" stroke="currentColor" stroke-width="1.5" stroke-linecap="round" stroke-linejoin="round"/>
<path d="M6 19.0007C3.57111 17.1763 2 14.2716 2 11C2 5.47715 6.47715 1 12 1C17.5228 1 22 5.47715 22 11C22 14.2716 20.4289 17.1763 18 19.0007" stroke="currentColor" stroke-width="1.5" stroke-linecap="round" stroke-linejoin="round"/>
<path d="M7.52779 15C6.57771 13.9385 6 12.5367 6 11C6 7.68629 8.68629 5 12 5C15.3137 5 18 7.68629 18 11C18 12.5367 17.4223 13.9385 16.4722 15" stroke="currentColor" stroke-width="1.5" stroke-linecap="round" stroke-linejoin="round"/>
<path fill-rule="evenodd" clip-rule="evenodd" d="M9.25 11C9.25 9.48122 10.4812 8.25 12 8.25C13.5188 8.25 14.75 9.48122 14.75 11C14.75 12.5188 13.5188 13.75 12 13.75C10.4812 13.75 9.25 12.5188 9.25 11Z" fill="currentColor"/>
<path d="M15.0776 21.4865C14.8566 22.8126 13.7093 23.7844 12.365 23.7844H11.7536C10.4093 23.7844 9.262 22.8126 9.041 21.4865L8.53213 18.4333C8.29232 16.9946 9.43086 15.8854 10.5339 15.15C11.9123 14.231 12.3864 14.3406 13.5847 15.1396C14.6421 15.8445 15.8263 16.9946 15.5865 18.4333L15.0776 21.4865Z" fill="currentColor"/>
</svg>
