<svg width="24" height="24" viewBox="0 0 24 24" fill="none" xmlns="http://www.w3.org/2000/svg">
<path fill-rule="evenodd" clip-rule="evenodd" d="M1.25 12C1.25 6.06294 6.06294 1.25 12 1.25C17.9371 1.25 22.75 6.06294 22.75 12C22.75 17.9371 17.9371 22.75 12 22.75C6.06294 22.75 1.25 17.9371 1.25 12ZM17.5714 11.1108C17.5555 11.1295 17.5385 11.1476 17.5206 11.1649L14.0206 14.5399C13.7224 14.8274 13.2476 14.8188 12.9601 14.5206C12.6726 14.2224 12.6812 13.7476 12.9794 13.4601L15.1417 11.375H15.0749H14.8124H14.6774H14.5403H14.4012H14.2602H14.1175H13.9733H13.8278H13.6811H13.5334H13.3849H13.3104H13.2357H13.0861H12.9362H12.7861H12.7674H12.7486H12.7299H12.7111H12.6924H12.6736H12.6361H12.4863H12.4115H12.3369H12.188H12.0399H11.8927H11.8195H11.7829H11.7465H11.6016H11.5297H11.4581H11.3162H11.1761H11.0379H10.9018H10.7679H10.6366H10.5078H10.3818H10.2589H10.0225H9.80106L9.80048 11.375L9.78854 11.3753C9.77611 11.3757 9.75507 11.3767 9.72666 11.3788C9.66959 11.383 9.58438 11.3919 9.4808 11.4103C9.27035 11.4477 9.00279 11.521 8.74424 11.6603C8.48981 11.7973 8.25034 11.9944 8.07162 12.2842C7.89406 12.5722 7.75 12.9945 7.75 13.625C7.75 15.0632 8.31725 15.6572 8.77853 15.9366C9.03345 16.091 9.29503 16.1712 9.49834 16.2118C9.59868 16.2319 9.68075 16.2415 9.73492 16.246C9.76186 16.2483 9.78149 16.2493 9.79254 16.2497L9.80222 16.25H9.80236H9.80356H9.80476H9.80597H9.80719H9.80842H9.80966H9.81091H9.81217H9.81343H9.81471H9.81599H9.81728H9.81858H9.81989H9.82121H9.82253H9.82387H9.82521H9.82656H9.82792H9.82928H9.83066H9.83204H9.83343H9.83483H9.83624H9.83765H9.83908H9.84051H9.84194H9.84339H9.84484H9.8463H9.84777H9.84925H9.85073H9.85222H9.85372H9.85523H9.85674H9.85826H9.85979H9.86133H9.86287H9.86442H9.86597H9.86754H9.86911H9.87068H9.87227H9.87386H9.87546H9.87706H9.87867H9.88029H9.88191H9.88354H9.88518H9.88683H9.88848H9.89013H9.8918H9.89347H9.89514H9.89682H9.89851H9.90021H9.90191H9.90361H9.90532H9.90704H9.90877H9.9105H9.91223H9.91397H9.91572H9.91747H9.91923H9.921H9.92277H9.92454H9.92632H9.92811H9.9299H9.93169H9.9335H9.9353H9.93712H9.93893H9.94076H9.94258H9.94442H9.94625H9.9481H9.94994H9.9518H9.95365H9.95551H9.95738H9.95925H9.96113H9.96301H9.96489H9.96678H9.96867H9.97057H9.97247H9.97438H9.97629H9.9782H9.98012H9.98205H9.98397H9.9859H9.98784H9.98978H9.99172H9.99367H9.99562H9.99757H9.99953H10.0015H10.0035H10.0054H10.0074H10.0094H10.0114H10.0133H10.0153H10.0173H10.0193H10.0213H10.0233H10.0253H10.0273H10.0293H10.0313H10.0333H10.0354H10.0374H10.0394H10.0414H10.0435H10.0455H10.0475H10.0496H10.0516H10.0536H10.0557H10.0577H10.0598H10.0618H10.0639H10.0659H10.068H10.07H10.0721H10.0742H10.0762H10.0783H10.0804H10.0824H10.0845H10.0866H10.0887H10.0907H10.0928H10.0949H10.097H10.0991H10.1012H10.1032H10.1053H10.1074H10.1095H10.1116H10.1137H10.1158H10.1179H10.12H10.1221H10.1242H10.1263H10.1284H10.1305H10.1326H10.1347H10.1368H10.1389H10.141H10.1431H10.1452H10.1473H10.1494H10.1516H10.1537H10.1558H10.1579H10.16H10.1621H10.1642H10.1663H10.1684H10.1705H10.1726H10.1747H10.1769H10.179H10.1811H10.1832H10.1853H10.1874H10.1895H10.1916H10.1937H10.1958H10.1979H10.2H10.2021H10.2042H10.2063H10.2084H10.2105H10.2126H10.2147H10.2168H10.2189H10.221H10.2231H10.2252H10.2273H10.2294H10.2315H10.2336H10.2357H10.2378H10.2398H10.2419H10.244H10.2461H10.2482H10.2502H10.2523H10.2544H10.2565H10.2585H10.2606H10.2627H10.2647H10.2668H10.2688H10.2709H10.2729H10.275H10.2771H10.2791H10.2811H10.2832H10.2852H10.2873H10.2893H10.2913H10.2934H10.2954H10.2974H10.2994H10.3015H10.3035H10.3055H10.3075H10.3095H10.3115H10.3135H10.3155H10.3175H10.3195H10.3215H10.3235H10.3254H10.3274H10.3294H10.3314H10.3333H10.3353H10.3373H10.3392H10.3412H10.3431H10.3451H10.347H10.3489H10.3509H10.3528H10.3547H10.3566H10.3586H10.3605H10.3624H10.3643H10.3662H10.3681H10.37H10.3719H10.3737H10.3756H10.3775H10.3794H10.3812H10.3831H10.3849H10.3868H10.3886H10.3905H10.3923H10.3941H10.396H10.3978H10.3996H10.4014H10.4032H10.405H10.4068H10.4086H10.4104H10.4122H10.4139H10.4157H10.4175H10.4192H10.421H10.4227H10.4245H10.4262H10.4279H10.4296H10.4314H10.4331H10.4348H10.4365H10.4382H10.4398H10.4415H10.4432H10.4449H10.4465H10.4482H10.4498H10.4515H10.4531H10.4547H10.4564H10.458H10.4596H10.4612H10.4628H10.4644H10.4659H10.4675H10.4691H10.4706H10.4722H10.4738H10.4753H10.4768H10.4783H10.4799H10.4814H10.4829H10.4844H10.4859H10.4873H10.4888H10.4903H10.4917H10.4932H10.4946H10.4961H10.4975H10.4989H10.5003H10.5017H10.5031H10.5045H10.5059H10.5073H10.5086H10.51H10.5113H10.5127H10.514H10.5153H10.5166H10.5179H10.5192H10.5205H10.5218H10.5231H10.5243H10.5256H10.5268H10.5281H10.5293H10.5305H10.5317H10.5329H10.5341H10.5353H10.5365H10.5376H10.5388H10.5399H10.5411H10.5422H10.5433H10.5444H10.5455H10.5466H10.5477H10.5488H10.5498H10.5509H10.5519H10.5529H10.554H10.555H10.556H10.557H10.5579H10.5589H10.5599H10.5608H10.5618H10.5627H10.5636H10.5645H10.5654H10.5663H10.5672H10.5681H10.5689H10.5698H10.5706H10.5714H10.5722H10.573H10.5738H10.5746H10.5754H10.5761H10.5769H10.5776H10.5784H10.5791H10.5798H10.5805H10.5812H10.5818H10.5825H10.5831H10.5838H10.5844H10.585H10.5856H10.5862H10.5868H10.5873H10.5879H10.5884H10.589H10.5895H10.59H10.5905H10.591H10.5914H10.5919H10.5924H10.5928H10.5932H10.5936H10.594H10.5944H10.5948H10.5951H10.5955H10.5958H10.5961H10.5965H10.5968H10.597H10.5973H10.5976H10.5978H10.5981H10.5983H10.5985H10.5987H10.5989H10.599H10.5992H10.5993H10.5994H10.5996H10.5997H10.5998H10.5998H10.5999H10.5999H10.6H10.6C11.0142 16.25 11.35 16.5858 11.35 17C11.35 17.4142 11.0142 17.75 10.6 17.75H10.6H10.5999H10.5999H10.5998H10.5998H10.5997H10.5996H10.5994H10.5993H10.5992H10.599H10.5989H10.5987H10.5985H10.5983H10.5981H10.5978H10.5976H10.5973H10.597H10.5968H10.5965H10.5961H10.5958H10.5955H10.5951H10.5948H10.5944H10.594H10.5936H10.5932H10.5928H10.5924H10.5919H10.5914H10.591H10.5905H10.59H10.5895H10.589H10.5884H10.5879H10.5873H10.5868H10.5862H10.5856H10.585H10.5844H10.5838H10.5831H10.5825H10.5818H10.5812H10.5805H10.5798H10.5791H10.5784H10.5776H10.5769H10.5761H10.5754H10.5746H10.5738H10.573H10.5722H10.5714H10.5706H10.5698H10.5689H10.5681H10.5672H10.5663H10.5654H10.5645H10.5636H10.5627H10.5618H10.5608H10.5599H10.5589H10.5579H10.557H10.556H10.555H10.554H10.5529H10.5519H10.5509H10.5498H10.5488H10.5477H10.5466H10.5455H10.5444H10.5433H10.5422H10.5411H10.5399H10.5388H10.5376H10.5365H10.5353H10.5341H10.5329H10.5317H10.5305H10.5293H10.5281H10.5268H10.5256H10.5243H10.5231H10.5218H10.5205H10.5192H10.5179H10.5166H10.5153H10.514H10.5127H10.5113H10.51H10.5086H10.5073H10.5059H10.5045H10.5031H10.5017H10.5003H10.4989H10.4975H10.4961H10.4946H10.4932H10.4917H10.4903H10.4888H10.4873H10.4859H10.4844H10.4829H10.4814H10.4799H10.4783H10.4768H10.4753H10.4738H10.4722H10.4706H10.4691H10.4675H10.4659H10.4644H10.4628H10.4612H10.4596H10.458H10.4564H10.4547H10.4531H10.4515H10.4498H10.4482H10.4465H10.4449H10.4432H10.4415H10.4398H10.4382H10.4365H10.4348H10.4331H10.4314H10.4296H10.4279H10.4262H10.4245H10.4227H10.421H10.4192H10.4175H10.4157H10.4139H10.4122H10.4104H10.4086H10.4068H10.405H10.4032H10.4014H10.3996H10.3978H10.396H10.3941H10.3923H10.3905H10.3886H10.3868H10.3849H10.3831H10.3812H10.3794H10.3775H10.3756H10.3737H10.3719H10.37H10.3681H10.3662H10.3643H10.3624H10.3605H10.3586H10.3566H10.3547H10.3528H10.3509H10.3489H10.347H10.3451H10.3431H10.3412H10.3392H10.3373H10.3353H10.3333H10.3314H10.3294H10.3274H10.3254H10.3235H10.3215H10.3195H10.3175H10.3155H10.3135H10.3115H10.3095H10.3075H10.3055H10.3035H10.3015H10.2994H10.2974H10.2954H10.2934H10.2913H10.2893H10.2873H10.2852H10.2832H10.2811H10.2791H10.2771H10.275H10.2729H10.2709H10.2688H10.2668H10.2647H10.2627H10.2606H10.2585H10.2565H10.2544H10.2523H10.2502H10.2482H10.2461H10.244H10.2419H10.2398H10.2378H10.2357H10.2336H10.2315H10.2294H10.2273H10.2252H10.2231H10.221H10.2189H10.2168H10.2147H10.2126H10.2105H10.2084H10.2063H10.2042H10.2021H10.2H10.1979H10.1958H10.1937H10.1916H10.1895H10.1874H10.1853H10.1832H10.1811H10.179H10.1769H10.1747H10.1726H10.1705H10.1684H10.1663H10.1642H10.1621H10.16H10.1579H10.1558H10.1537H10.1516H10.1494H10.1473H10.1452H10.1431H10.141H10.1389H10.1368H10.1347H10.1326H10.1305H10.1284H10.1263H10.1242H10.1221H10.12H10.1179H10.1158H10.1137H10.1116H10.1095H10.1074H10.1053H10.1032H10.1012H10.0991H10.097H10.0949H10.0928H10.0907H10.0887H10.0866H10.0845H10.0824H10.0804H10.0783H10.0762H10.0742H10.0721H10.07H10.068H10.0659H10.0639H10.0618H10.0598H10.0577H10.0557H10.0536H10.0516H10.0496H10.0475H10.0455H10.0435H10.0414H10.0394H10.0374H10.0354H10.0333H10.0313H10.0293H10.0273H10.0253H10.0233H10.0213H10.0193H10.0173H10.0153H10.0133H10.0114H10.0094H10.0074H10.0054H10.0035H10.0015H9.99953H9.99757H9.99562H9.99367H9.99172H9.98978H9.98784H9.9859H9.98397H9.98205H9.98012H9.9782H9.97629H9.97438H9.97247H9.97057H9.96867H9.96678H9.96489H9.96301H9.96113H9.95925H9.95738H9.95551H9.95365H9.9518H9.94994H9.9481H9.94625H9.94442H9.94258H9.94076H9.93893H9.93712H9.9353H9.9335H9.93169H9.9299H9.92811H9.92632H9.92454H9.92277H9.921H9.91923H9.91747H9.91572H9.91397H9.91223H9.9105H9.90877H9.90704H9.90532H9.90361H9.90191H9.90021H9.89851H9.89682H9.89514H9.89347H9.8918H9.89013H9.88848H9.88683H9.88518H9.88354H9.88191H9.88029H9.87867H9.87706H9.87546H9.87386H9.87227H9.87068H9.86911H9.86754H9.86597H9.86442H9.86287H9.86133H9.85979H9.85826H9.85674H9.85523H9.85372H9.85222H9.85073H9.84925H9.84777H9.8463H9.84484H9.84339H9.84194H9.84051H9.83908H9.83765H9.83624H9.83483H9.83343H9.83204H9.83066H9.82928H9.82792H9.82656H9.82521H9.82387H9.82253H9.82121H9.81989H9.81858H9.81728H9.81599H9.81471H9.81343H9.81217H9.81091H9.80966H9.80842H9.80719H9.80597H9.80476H9.80356H9.80236H9.80118H9.8C9.73787 17.75 8.87293 17.7473 8.00155 17.2197C7.06947 16.6552 6.25 15.5618 6.25 13.625C6.25 12.7555 6.45214 12.0528 6.79481 11.497C7.13633 10.9431 7.59115 10.5776 8.03291 10.3397C8.89392 9.87591 9.74443 9.875 9.8 9.875H10.0225H10.2589H10.3818H10.5078H10.6366H10.7679H10.9018H11.0379H11.1761H11.3162H11.4581H11.5297H11.6016H11.7465H11.7829H11.8195H11.8927H12.0399H12.188H12.3369H12.4115H12.4863H12.6361H12.6736H12.6924H12.7111H12.7299H12.7486H12.7674H12.7861H12.9362H13.0861H13.2357H13.3104H13.3849H13.5334H13.6811H13.8278H13.9733H14.1175H14.2602H14.4012H14.5403H14.6774H14.8124H15.0749H15.2333L12.9604 7.52095C12.6727 7.22296 12.6811 6.74816 12.9791 6.46045C13.277 6.17274 13.7518 6.18107 14.0396 6.47905L17.538 10.1024C17.6692 10.2375 17.75 10.4218 17.75 10.625C17.75 10.8103 17.6828 10.9799 17.5714 11.1108Z" fill="currentColor"/>
</svg>
