<svg width="24" height="24" viewBox="0 0 24 24" stroke-width="1.5" fill="none" xmlns="http://www.w3.org/2000/svg">
<path d="M10 21H5C3.89543 21 3 20.1046 3 19V10H21M15 4V2M15 4V6M15 4H10.5" stroke="currentColor" stroke-linecap="round" stroke-linejoin="round"/>
<path d="M3 10V6C3 4.89543 3.89543 4 5 4H7" stroke="currentColor" stroke-linecap="round" stroke-linejoin="round"/>
<path d="M7 2V6" stroke="currentColor" stroke-linecap="round" stroke-linejoin="round"/>
<path d="M21 10V6C21 4.89543 20.1046 4 19 4H18.5" stroke="currentColor" stroke-linecap="round" stroke-linejoin="round"/>
<path d="M21.6669 16.6667C21.0481 15.097 19.635 14 17.9906 14C16.2322 14 14.7382 15.2545 14.1973 17" stroke="currentColor" stroke-linecap="round" stroke-linejoin="round"/>
<path d="M19.9951 16.772H21.4001C21.7314 16.772 22.0001 16.5034 22.0001 16.172V14.5498" stroke="currentColor" stroke-linecap="round" stroke-linejoin="round"/>
<path d="M14.3341 19.3333C14.9529 20.903 16.366 22 18.0103 22C19.7687 22 21.2628 20.7455 21.8037 19" stroke="currentColor" stroke-linecap="round" stroke-linejoin="round"/>
<path d="M16.0049 19.228H14.5999C14.2686 19.228 13.9999 19.4966 13.9999 19.828V21.4502" stroke="currentColor" stroke-linecap="round" stroke-linejoin="round"/>
</svg>
