<svg width="24" height="24" viewBox="0 0 24 24" stroke-width="1.5" fill="none" xmlns="http://www.w3.org/2000/svg">
<path d="M12 22C6.47715 22 2 17.5228 2 12C2 6.47715 6.47715 2 12 2C17.5228 2 22 6.47715 22 12C22 17.5228 17.5228 22 12 22Z" stroke="currentColor" stroke-linecap="round" stroke-linejoin="round"/>
<path d="M12 22C9.79086 22 8 17.5228 8 12C8 6.47715 9.79086 2 12 2C14.2091 2 16 6.47715 16 12C16 17.5228 14.2091 22 12 22Z" stroke="currentColor" stroke-linecap="round" stroke-linejoin="round"/>
<path d="M9 21C6 20 5 15.611 5 12.5C5 9.38904 6.5 5.5 10 3" stroke="currentColor" stroke-linecap="round" stroke-linejoin="round"/>
<path d="M15 3C18 4 19 8.38904 19 11.5C19 14.611 17.5 18.5 14 21" stroke="currentColor" stroke-linecap="round" stroke-linejoin="round"/>
</svg>
