<svg width="24" height="24" viewBox="0 0 24 24" fill="none" xmlns="http://www.w3.org/2000/svg">
<path fill-rule="evenodd" clip-rule="evenodd" d="M12 1.25C6.06294 1.25 1.25 6.06294 1.25 12C1.25 17.9371 6.06294 22.75 12 22.75C17.9371 22.75 22.75 17.9371 22.75 12C22.75 6.06294 17.9371 1.25 12 1.25ZM16.0303 13.0303L12.5303 16.5303C12.2374 16.8232 11.7626 16.8232 11.4697 16.5303L7.96967 13.0303C7.67678 12.7374 7.67678 12.2626 7.96967 11.9697C8.26256 11.6768 8.73744 11.6768 9.03033 11.9697L11.25 14.1893V8C11.25 7.58579 11.5858 7.25 12 7.25C12.4142 7.25 12.75 7.58579 12.75 8V14.1893L14.9697 11.9697C15.2626 11.6768 15.7374 11.6768 16.0303 11.9697C16.3232 12.2626 16.3232 12.7374 16.0303 13.0303Z" fill="currentColor"/>
</svg>
