<?xml version="1.0" encoding="UTF-8" standalone="no"?>
<svg
   xmlns:dc="http://purl.org/dc/elements/1.1/"
   xmlns:cc="http://creativecommons.org/ns#"
   xmlns:rdf="http://www.w3.org/1999/02/22-rdf-syntax-ns#"
   xmlns:svg="http://www.w3.org/2000/svg"
   xmlns="http://www.w3.org/2000/svg"
   xmlns:sodipodi="http://sodipodi.sourceforge.net/DTD/sodipodi-0.dtd"
   xmlns:inkscape="http://www.inkscape.org/namespaces/inkscape"
   width="24"
   height="24"
   viewBox="0 0 6.3499999 6.3500002"
   version="1.1"
   id="svg8"
   inkscape:version="1.0.2 (e86c870879, 2021-01-15)"
   sodipodi:docname="snapchat_black.svg">
  <defs
     id="defs2" />
  <sodipodi:namedview
     id="base"
     pagecolor="#ffffff"
     bordercolor="#666666"
     borderopacity="1.0"
     inkscape:pageopacity="0.0"
     inkscape:pageshadow="2"
     inkscape:zoom="24.041631"
     inkscape:cx="12"
     inkscape:cy="12"
     inkscape:document-units="mm"
     inkscape:current-layer="layer1"
     inkscape:document-rotation="0"
     showgrid="false"
     units="px"
     inkscape:window-width="1507"
     inkscape:window-height="1012"
     inkscape:window-x="0"
     inkscape:window-y="32"
     inkscape:window-maximized="0" />
  <metadata
     id="metadata5">
    <rdf:RDF>
      <cc:Work
         rdf:about="">
        <dc:format>image/svg+xml</dc:format>
        <dc:type
           rdf:resource="http://purl.org/dc/dcmitype/StillImage" />
        <dc:title></dc:title>
      </cc:Work>
    </rdf:RDF>
  </metadata>
  <g
     inkscape:label="Layer 1"
     inkscape:groupmode="layer"
     id="layer1">
    <path
       style="color:#000000;font-style:normal;font-variant:normal;font-weight:normal;font-stretch:normal;font-size:medium;line-height:normal;font-family:sans-serif;font-variant-ligatures:normal;font-variant-position:normal;font-variant-caps:normal;font-variant-numeric:normal;font-variant-alternates:normal;font-variant-east-asian:normal;font-feature-settings:normal;font-variation-settings:normal;text-indent:0;text-align:start;text-decoration:none;text-decoration-line:none;text-decoration-style:solid;text-decoration-color:#000000;letter-spacing:normal;word-spacing:normal;text-transform:none;writing-mode:lr-tb;direction:ltr;text-orientation:mixed;dominant-baseline:auto;baseline-shift:baseline;text-anchor:start;white-space:normal;shape-padding:0;shape-margin:0;inline-size:0;clip-rule:nonzero;display:inline;overflow:visible;visibility:visible;opacity:1;isolation:auto;mix-blend-mode:normal;color-interpolation:sRGB;color-interpolation-filters:linearRGB;solid-color:#000000;solid-opacity:1;vector-effect:none;fill:#000000;fill-opacity:1;fill-rule:nonzero;stroke:#000000;stroke-width:0.104239;stroke-linecap:butt;stroke-linejoin:miter;stroke-miterlimit:4;stroke-dasharray:none;stroke-dashoffset:0;stroke-opacity:1;color-rendering:auto;image-rendering:auto;shape-rendering:auto;text-rendering:auto;enable-background:accumulate;stop-color:#000000;stop-opacity:1"
       d="M 3.174731,0.54727061 C 3.0065308,0.5473272 2.8380559,0.5647121 2.7163188,0.59898337 2.4430796,0.67590404 2.2301026,0.7995904 2.0338183,0.99598644 1.7495837,1.2803833 1.6335116,1.5625367 1.6050334,2.0388601 L 1.5904889,2.282341 1.4245771,2.289876 C 1.2808974,2.2964031 1.2463924,2.3059486 1.1665519,2.3620621 0.99788325,2.4806138 0.92918657,2.6767784 0.98771204,2.8727255 1.0314135,3.0190433 1.1189235,3.1172377 1.3308477,3.2568006 c 0.099178,0.065314 0.180456,0.1332517 0.180456,0.1508285 0,0.1487792 -0.3296284,0.5159098 -0.60331546,0.6717272 -0.3353966,0.1909485 -0.39915779,0.2557203 -0.39915779,0.4077766 0,0.2092454 0.1847503,0.376758 0.54621585,0.495042 0.092136,0.030152 0.1149039,0.048399 0.1465199,0.1185109 0.081377,0.180463 0.2045658,0.2461656 0.501506,0.2671826 0.288046,0.020388 0.4286099,0.060703 0.6426386,0.1842268 0.2289762,0.1321499 0.4032361,0.2042901 0.5548348,0.2294752 0.2690649,0.044699 0.573094,0.017455 0.7923902,-0.071105 0.067996,-0.027461 0.208124,-0.098795 0.3113538,-0.1583704 0.2140286,-0.1235242 0.3540539,-0.1638384 0.6421001,-0.1842267 0.2969401,-0.021017 0.4206672,-0.086719 0.5020447,-0.2671826 0.031616,-0.070111 0.054385,-0.088353 0.1465194,-0.1185082 0.3571738,-0.116879 0.5462157,-0.286035 0.5462157,-0.488578 0,-0.1562851 -0.075379,-0.2372294 -0.3662987,-0.3943096 C 5.186531,3.9436033 4.8386964,3.56477 4.8386964,3.4065547 c 0,-0.018132 0.054826,-0.067851 0.1222791,-0.1104282 C 5.275063,3.0978618 5.3785495,2.9627185 5.3806031,2.7472171 5.382161,2.5841554 5.3162555,2.4553094 5.1834482,2.3620649 5.1034454,2.3059003 5.0691119,2.2964079 4.9254231,2.2898825 L 4.7595111,2.282341 4.744967,2.0388601 C 4.7165214,1.5630672 4.6006479,1.2814734 4.316182,0.99544774 4.1209737,0.79916894 3.9105422,0.67673942 3.6326042,0.59844467 3.5112374,0.56425623 3.3429309,0.54721399 3.174731,0.54727061 Z m 0,0.30165777 c 0.3940465,0 0.6776658,0.11011666 0.9292133,0.36037302 0.2747982,0.2733882 0.3378949,0.4745405 0.3372105,1.0719623 -5.455e-4,0.4758314 -0.018575,0.4476849 0.2375554,0.3571412 0.241594,-0.085405 0.3739825,-0.061017 0.4045443,0.074337 0.02064,0.091412 -0.057731,0.1804012 -0.3021964,0.3420583 -0.1266409,0.083743 -0.2422843,0.167572 -0.2569475,0.1863814 -0.060965,0.078204 -0.002,0.2887718 0.1449031,0.5160502 0.1637693,0.2533823 0.3811829,0.4497222 0.6868103,0.6205531 0.1117805,0.062479 0.1653729,0.1051867 0.1653729,0.1314365 0,0.055678 -0.1085029,0.1145526 -0.3463675,0.1890747 -0.2255474,0.070663 -0.2935776,0.1255666 -0.2935776,0.2354004 0,0.0905 -0.065585,0.117624 -0.3415199,0.1432873 C 4.2285505,5.1059262 4.1302373,5.1368427 3.8733918,5.2838354 3.7589455,5.3493332 3.6100207,5.4218673 3.5426456,5.4454377 3.4048428,5.4936405 3.0864543,5.5161381 2.9511811,5.4869156 2.8123796,5.4569319 2.6645001,5.3930245 2.4604484,5.2752166 2.2211698,5.137068 2.1183604,5.1056879 1.8097296,5.0769844 1.5337936,5.0513231 1.4687487,5.0241978 1.4687487,4.9336971 1.4687487,4.8238636 1.4007176,4.7689593 1.1751712,4.6982962 0.93730629,4.6237744 0.82880346,4.5648991 0.82880346,4.5092214 c 0,-0.026247 0.0535941,-0.068957 0.16537309,-0.1314364 C 1.1975324,4.2641195 1.3625857,4.1388652 1.4951438,3.996942 1.7401453,3.7346317 1.9074306,3.365701 1.83397,3.2498004 1.8240052,3.2340787 1.7062664,3.147346 1.5727128,3.0574936 1.2896552,2.8670569 1.2283095,2.7847448 1.2855994,2.6739573 1.341128,2.5665778 1.44162,2.5572152 1.6712904,2.6384049 1.9284881,2.7293285 1.9100124,2.7573052 1.9088459,2.2812637 1.9073818,1.6842467 1.9709302,1.4830154 2.246056,1.2093014 2.497604,0.95904564 2.7806842,0.84892838 3.174731,0.84892838 Z"
       id="path847" />
  </g>
</svg>
