<svg
   xmlns="http://www.w3.org/2000/svg"
   width="24"
   height="24"
   viewBox="0 0 24 24"
   fill="none">
  <path
     stroke="currentColor"
     stroke-width="1.5"
     stroke-linecap="round"
     stroke-linejoin="round"
     d="M 11.998933,1.5760649 C 11.3317,1.5762894 10.663377,1.6452535 10.180459,1.7812043 9.0965463,2.0863408 8.2516879,2.576992 7.4730482,3.356075 6.3455186,4.4842484 5.8850724,5.6035218 5.7721022,7.4930484 L 5.7144059,8.4589126 5.0562508,8.4887953 C 4.4862881,8.5146954 4.3494102,8.5525612 4.032691,8.7751579 3.3635997,9.24544 3.0910869,10.023605 3.3232515,10.800908 c 0.1733599,0.580428 0.5205021,0.969955 1.361184,1.523586 0.3934291,0.259092 0.7158507,0.528596 0.7158507,0.598322 0,0.590191 -1.3076026,2.046561 -2.3932909,2.664673 -1.3304842,0.757473 -1.5834183,1.014416 -1.5834183,1.617608 0,0.830055 0.7328856,1.49456 2.1667829,1.963781 0.3654921,0.11961 0.4558118,0.191994 0.5812292,0.470121 0.3228127,0.715878 0.8114916,0.976514 1.9894231,1.059886 1.1426493,0.08087 1.7002517,0.240805 2.5492821,0.730809 0.9083251,0.524226 1.5995967,0.810398 2.2009727,0.910305 1.067353,0.177314 2.273406,0.06925 3.143332,-0.282067 0.269733,-0.108934 0.825606,-0.391909 1.235108,-0.628239 0.84903,-0.490008 1.404496,-0.649931 2.547146,-0.730809 1.177932,-0.08337 1.668744,-0.344005 1.99156,-1.059886 0.125418,-0.278123 0.21574,-0.350487 0.581228,-0.47011 1.416872,-0.463647 2.166782,-1.134671 2.166782,-1.938139 0,-0.619967 -0.299022,-0.941065 -1.45307,-1.564186 -1.143815,-0.617592 -2.523639,-2.120385 -2.523639,-2.748009 0,-0.07193 0.217492,-0.26916 0.485069,-0.438058 C 20.330736,11.694 20.741257,11.1579 20.749403,10.303028 20.755583,9.6561795 20.494142,9.1450604 19.96731,8.7751691 19.649947,8.5523694 19.513749,8.5147141 18.943751,8.4888287 l -0.658157,-0.029922 -0.0577,-0.9658642 C 18.115059,5.6056264 17.6554,4.4885724 16.526953,3.3539378 15.752582,2.5753199 14.917821,2.0896545 13.81527,1.7790672 13.333819,1.6434452 12.666165,1.5758404 11.998933,1.5760649 Z"
    />
</svg>
