<svg width="1100" height="232" viewBox="0 0 1100 232" fill="none" xmlns="http://www.w3.org/2000/svg">
<path d="M41 156C80.398 156 117.332 118.418 143.289 83.2093C162.222 57.5279 202.927 54.8611 221.285 80.9563L271.649 152.544C285.819 172.686 314.198 176.37 333.041 160.514L431.941 77.2936C448.857 63.0593 473.912 64.3758 489.243 80.3044L583.254 177.978C600.686 196.089 630.016 194.934 645.97 175.509L743.534 56.7178C760.914 35.5563 793.571 36.4191 809.809 58.4688L862.343 129.804C886.688 162.861 949.508 144.175 969.529 108.335C987.532 76.1075 1015.82 52 1059 52" stroke="#FFEBE4" stroke-width="82" stroke-linecap="round"/>
</svg>
