<svg width="117" height="35" viewBox="0 0 117 35" fill="none" xmlns="http://www.w3.org/2000/svg">
<path d="M3.58984 29.533C3.58984 30.0552 4.01322 30.4786 4.53549 30.4786H6.86127C7.38353 30.4786 7.80691 30.0552 7.80691 29.533V12.2558C7.80691 11.7335 7.38353 11.3101 6.86127 11.3101H4.53549C4.01322 11.3101 3.58984 11.7335 3.58984 12.2558V29.533Z" fill="black"/>
<path d="M29.1474 26.3741C29.4274 25.9413 29.2504 25.3748 28.7972 25.1293L26.813 24.0546C26.3353 23.7958 25.7437 23.9974 25.4371 24.4459C24.4163 25.9391 22.7539 26.9516 20.681 26.9516C17.269 26.9516 14.8537 24.3064 14.8537 20.8944C14.8537 17.4824 17.269 14.8371 20.681 14.8371C22.7539 14.8371 24.4163 15.8496 25.4371 17.3428C25.7437 17.7913 26.3353 17.9929 26.813 17.7342L28.7972 16.6594C29.2504 16.4139 29.4274 15.8474 29.1474 15.4146C27.3821 12.6856 24.2874 10.9268 20.681 10.9268C14.9304 10.9268 10.56 15.2205 10.56 20.8944C10.56 26.5683 14.9304 30.862 20.681 30.862C24.2874 30.862 27.3821 29.1032 29.1474 26.3741Z" fill="black"/>
<path d="M50.6422 20.8944C50.6422 15.3355 46.2718 10.9268 40.5979 10.9268C34.924 10.9268 30.5536 15.3355 30.5536 20.8944C30.5536 26.4532 34.924 30.862 40.5979 30.862C46.2718 30.862 50.6422 26.4532 50.6422 20.8944ZM34.809 20.8944C34.809 17.4824 37.1859 14.8371 40.5979 14.8371C43.9716 14.8371 46.3485 17.4824 46.3485 20.8944C46.3485 24.3064 43.9716 26.9516 40.5979 26.9516C37.1859 26.9516 34.809 24.3064 34.809 20.8944Z" fill="black"/>
<path d="M53.3501 29.533C53.3501 30.0552 53.7734 30.4786 54.2957 30.4786H56.6215C57.1437 30.4786 57.5671 30.0552 57.5671 29.533V21.0477C57.5671 16.9457 59.714 14.7605 62.5126 14.7605C64.9662 14.7605 66.4996 16.6006 66.4996 19.6293V29.533C66.4996 30.0552 66.923 30.4786 67.4453 30.4786H69.7711C70.2933 30.4786 70.7167 30.0552 70.7167 29.533V18.9392C70.7167 14.0704 67.8414 10.9268 63.3943 10.9268C60.9024 10.9268 58.7172 12.0002 57.5671 13.917V12.2558C57.5671 11.7335 57.1437 11.3101 56.6215 11.3101H54.2957C53.7734 11.3101 53.3501 11.7335 53.3501 12.2558V29.533Z" fill="black"/>
<path d="M93.2876 20.8944C93.2876 15.3355 88.9172 10.9268 83.2433 10.9268C77.5695 10.9268 73.199 15.3355 73.199 20.8944C73.199 26.4532 77.5695 30.862 83.2433 30.862C88.9172 30.862 93.2876 26.4532 93.2876 20.8944ZM77.4544 20.8944C77.4544 17.4824 79.8313 14.8371 83.2433 14.8371C86.617 14.8371 88.9939 17.4824 88.9939 20.8944C88.9939 24.3064 86.617 26.9516 83.2433 26.9516C79.8313 26.9516 77.4544 24.3064 77.4544 20.8944Z" fill="black"/>
<path d="M95.9955 29.533C95.9955 30.0552 96.4189 30.4786 96.9411 30.4786H99.2669C99.7892 30.4786 100.213 30.0552 100.213 29.533V12.2558C100.213 11.7335 99.7892 11.3101 99.2669 11.3101H96.9411C96.4189 11.3101 95.9955 11.7335 95.9955 12.2558V29.533Z" fill="black"/>
<path d="M104.346 29.533C104.346 30.0552 104.769 30.4786 105.291 30.4786H107.617C108.139 30.4786 108.563 30.0552 108.563 29.533V21.1244C108.563 17.2907 110.748 15.2588 113.163 15.2588C113.466 15.2588 113.745 15.2768 114.017 15.3127C114.65 15.3964 115.272 14.9527 115.272 14.3136V12.047C115.272 11.5963 114.954 11.2021 114.505 11.1586C114.207 11.1298 113.915 11.1184 113.623 11.1184C111.438 11.1184 109.291 12.5369 108.563 14.7221V12.2558C108.563 11.7335 108.139 11.3101 107.617 11.3101H105.291C104.769 11.3101 104.346 11.7335 104.346 12.2558V29.533Z" fill="black"/>
<circle cx="98.1297" cy="6.36411" r="2.36411" fill="black"/>
<circle cx="5.69224" cy="6.36411" r="2.36411" fill="black"/>
</svg>