<svg width="50" height="50" viewBox="0 0 50 50" fill="none" xmlns="http://www.w3.org/2000/svg">
<path d="M15 15.75C15 14.4902 15.5004 13.282 16.3912 12.3912C17.282 11.5004 18.4902 11 19.75 11H24.5V20.5H19.75C18.4902 20.5 17.282 19.9996 16.3912 19.1088C15.5004 18.218 15 17.0098 15 15.75Z" stroke="black" stroke-width="1.8" stroke-linecap="round" stroke-linejoin="round"/>
<path d="M24.5 11H29.25C29.8738 11 30.4914 11.1229 31.0677 11.3616C31.644 11.6003 32.1677 11.9502 32.6088 12.3912C33.0498 12.8323 33.3997 13.356 33.6384 13.9323C33.8771 14.5085 34 15.1262 34 15.75C34 16.3738 33.8771 16.9914 33.6384 17.5677C33.3997 18.144 33.0498 18.6677 32.6088 19.1088C32.1677 19.5498 31.644 19.8997 31.0677 20.1384C30.4914 20.3771 29.8738 20.5 29.25 20.5H24.5V11Z" stroke="black" stroke-width="1.8" stroke-linecap="round" stroke-linejoin="round"/>
<path d="M24.5 25.25C24.5 24.6262 24.6229 24.0086 24.8616 23.4323C25.1003 22.856 25.4502 22.3323 25.8912 21.8912C26.3323 21.4502 26.856 21.1003 27.4323 20.8616C28.0086 20.6229 28.6262 20.5 29.25 20.5C29.8738 20.5 30.4914 20.6229 31.0677 20.8616C31.644 21.1003 32.1677 21.4502 32.6088 21.8912C33.0498 22.3323 33.3997 22.856 33.6384 23.4323C33.8771 24.0086 34 24.6262 34 25.25C34 25.8738 33.8771 26.4914 33.6384 27.0677C33.3997 27.644 33.0498 28.1677 32.6088 28.6088C32.1677 29.0498 31.644 29.3997 31.0677 29.6384C30.4914 29.8771 29.8738 30 29.25 30C28.6262 30 28.0086 29.8771 27.4323 29.6384C26.856 29.3997 26.3323 29.0498 25.8912 28.6088C25.4502 28.1677 25.1003 27.644 24.8616 27.0677C24.6229 26.4914 24.5 25.8738 24.5 25.25V25.25Z" stroke="black" stroke-width="1.8" stroke-linecap="round" stroke-linejoin="round"/>
<path d="M15 34.75C15 33.4902 15.5004 32.282 16.3912 31.3912C17.282 30.5004 18.4902 30 19.75 30H24.5V34.75C24.5 36.0098 23.9996 37.218 23.1088 38.1088C22.218 38.9996 21.0098 39.5 19.75 39.5C18.4902 39.5 17.282 38.9996 16.3912 38.1088C15.5004 37.218 15 36.0098 15 34.75Z" stroke="black" stroke-width="1.8" stroke-linecap="round" stroke-linejoin="round"/>
<path d="M15 25.25C15 23.9902 15.5004 22.782 16.3912 21.8912C17.282 21.0004 18.4902 20.5 19.75 20.5H24.5V30H19.75C18.4902 30 17.282 29.4996 16.3912 28.6088C15.5004 27.718 15 26.5098 15 25.25Z" stroke="black" stroke-width="1.8" stroke-linecap="round" stroke-linejoin="round"/>
</svg>
