<svg width="100" height="50" viewBox="0 0 100 50" fill="none" xmlns="http://www.w3.org/2000/svg">
<path d="M38.1594 19.0264H45.9501V20.5533H39.7407V25.1652H45.3483V26.6703H39.7407V32.5117H38.1594V19.0264Z" fill="black"/>
<path d="M47.5964 19.0264H49.1967V32.5021H47.5964V19.0264Z" fill="black"/>
<path d="M51.9178 31.7872C51.3092 31.1098 51.0049 30.162 51.0049 28.9439V22.9043H52.6038V28.7008C52.6038 29.6182 52.8112 30.2897 53.2259 30.7154C53.6407 31.141 54.1986 31.3543 54.8995 31.3552C55.4122 31.3634 55.9148 31.2125 56.3381 30.9232C56.7564 30.6374 57.0934 30.248 57.3162 29.793C57.5475 29.3381 57.6671 28.8348 57.6653 28.3245V22.9043H59.2656V32.5031H57.7401V31.1161H57.6653C57.3658 31.628 56.9285 32.0454 56.4033 32.321C55.8419 32.643 55.2057 32.8116 54.5586 32.8101C53.4084 32.8056 52.5282 32.4646 51.9178 31.7872Z" fill="black"/>
<path d="M63.9561 32.6105C63.6449 32.4965 63.3598 32.321 63.118 32.0943C62.871 31.8574 62.6787 31.5695 62.5542 31.2507C62.4188 30.876 62.3548 30.4793 62.3654 30.0811V24.3539H60.6904V22.9044H62.3654V20.1943H63.9643V22.9044H66.2981V24.3539H63.9643V29.7021C63.9643 30.2455 64.0648 30.6381 64.2659 30.8948C64.504 31.1774 64.8491 31.3186 65.301 31.3186C65.6759 31.3153 66.0419 31.204 66.3551 30.9981V32.5603C66.1718 32.6459 65.9789 32.7092 65.7805 32.7491C65.535 32.7902 65.2863 32.8088 65.0375 32.8048C64.6681 32.8069 64.3016 32.7411 63.9561 32.6105V32.6105Z" fill="black"/>
<path d="M70.569 32.6105C70.2584 32.4962 69.9738 32.3207 69.7322 32.0943C69.4849 31.8574 69.2921 31.5696 69.1671 31.2507C69.0322 30.8759 68.9687 30.4793 68.9797 30.0811V24.3539H67.3047V22.9044H68.9797V20.1943H70.5785V22.9044H72.9123V24.3539H70.5785V29.7021C70.5785 30.2455 70.6791 30.6381 70.8788 30.8948C71.1178 31.1774 71.4633 31.3186 71.9153 31.3186C72.2897 31.3154 72.6553 31.2041 72.968 30.9981V32.5603C72.7853 32.646 72.5928 32.7094 72.3948 32.7491C72.1488 32.7901 71.8997 32.8088 71.6504 32.8048C71.2811 32.8064 70.9146 32.7406 70.569 32.6105V32.6105Z" fill="black"/>
<path d="M75.9798 32.1447C75.2556 31.7081 74.6664 31.0795 74.2776 30.3285C73.8613 29.523 73.6508 28.6269 73.665 27.7203C73.6559 26.8344 73.8521 25.9584 74.2382 25.161C74.6033 24.4043 75.1667 23.7606 75.8684 23.2985C76.5959 22.8282 77.4474 22.586 78.3136 22.603C79.1712 22.5815 80.0179 22.7993 80.7588 23.232C81.446 23.6478 81.9987 24.253 82.3509 24.9749C82.7325 25.7669 82.9228 26.6375 82.9065 27.5165C82.9092 27.6813 82.89 27.8458 82.8494 28.0056H75.2652C75.2803 28.6556 75.4622 29.2909 75.7937 29.8503C76.081 30.3287 76.494 30.7191 76.9877 30.9792C77.4542 31.2266 77.9743 31.3558 78.5024 31.3555C79.7322 31.3555 80.6795 30.7786 81.3443 29.6248L82.7027 30.2837C82.3129 31.0362 81.732 31.6729 81.0182 32.1298C80.3091 32.5826 79.4529 32.809 78.4494 32.809C77.5806 32.8204 76.7257 32.5904 75.9798 32.1447ZM81.2111 26.6865C81.1804 26.2661 81.0649 25.8562 80.8715 25.4816C80.6536 25.0622 80.3246 24.7107 79.9206 24.4654C79.4284 24.1735 78.8624 24.0296 78.2905 24.0511C77.5834 24.0336 76.8977 24.2941 76.3805 24.7765C75.8442 25.2879 75.4849 25.9569 75.3549 26.6865H81.2111Z" fill="black"/>
<path d="M83.9417 22.9043H85.4672V24.4475H85.5419C85.746 23.8988 86.1288 23.4346 86.6287 23.1298C87.1286 22.79 87.7181 22.6061 88.3226 22.6014C88.7092 22.5921 89.0936 22.6629 89.4515 22.8092V24.5222C89.0285 24.317 88.5631 24.2142 88.0931 24.222C87.6361 24.22 87.1896 24.358 86.8134 24.6173C86.4217 24.89 86.1043 25.2561 85.8897 25.6823C85.6578 26.1282 85.5384 26.6239 85.5419 27.1264V32.5031H83.943V22.9043H83.9417Z" fill="black"/>
<path d="M28.6528 24.6602H21.5468L15.3306 30.8778L18.8829 34.4301L28.6528 24.6602Z" fill="black"/>
<path d="M13.5537 29.1005L10 25.5468L21.5468 14H28.6528L13.5537 29.1005Z" fill="black"/>
<path d="M18.8828 34.4303L21.5467 37.0942H28.6528L22.4338 30.8779L18.8828 34.4303Z" fill="black"/>
<path d="M28.6528 24.6597L22.4366 30.876L28.6528 37.0936H21.5468L18.8829 34.4297L15.3292 30.876L21.5468 24.6597H28.6528ZM21.5468 14L10 25.5468L13.5537 29.1005L28.6528 14H21.5468Z" fill="url(#paint0_radial_2514_13416)"/>
<defs>
<radialGradient id="paint0_radial_2514_13416" cx="0" cy="0" r="1" gradientUnits="userSpaceOnUse" gradientTransform="translate(11.7914 16.2265) scale(28.4295)">
<stop stop-color="white" stop-opacity="0.1"/>
<stop offset="1" stop-color="white" stop-opacity="0"/>
</radialGradient>
</defs>
</svg>
