<svg width="100" height="50" viewBox="0 0 100 50" fill="none" xmlns="http://www.w3.org/2000/svg">
<path d="M22.8325 27.7552C24.3681 27.7552 25.6129 26.5104 25.6129 24.9748C25.6129 23.4392 24.3681 22.1943 22.8325 22.1943C21.2969 22.1943 20.052 23.4392 20.052 24.9748C20.052 26.5104 21.2969 27.7552 22.8325 27.7552Z" fill="black"/>
<path fill-rule="evenodd" clip-rule="evenodd" d="M22.8323 19.3223C26.5654 19.3223 30.0334 19.8579 32.6483 20.7581C35.7988 21.8428 37.7359 23.4868 37.7359 24.9755C37.7359 26.5268 35.683 28.2734 32.2997 29.3944C29.7419 30.2418 26.376 30.6842 22.8323 30.6842C19.199 30.6842 15.7585 30.2689 13.1719 29.385C9.89932 28.2665 7.92822 26.4973 7.92822 24.9755C7.92822 23.4989 9.77772 21.8676 12.884 20.7846C15.5086 19.8695 19.0622 19.3223 22.8318 19.3223H22.8323Z" stroke="black" stroke-width="1.33018"/>
<path fill-rule="evenodd" clip-rule="evenodd" d="M17.9113 22.1644C19.7763 18.9305 21.9727 16.1939 24.0589 14.3785C26.5724 12.1911 28.9643 11.3345 30.2539 12.0781C31.5978 12.8531 32.0852 15.5041 31.3661 18.9948C30.8229 21.634 29.5241 24.7706 27.7537 27.8404C25.9386 30.9879 23.8602 33.7608 21.8025 35.5595C19.1987 37.8356 16.6813 38.6593 15.363 37.8991C14.0839 37.1619 13.5947 34.7443 14.2083 31.5124C14.7268 28.7817 16.028 25.4299 17.9107 22.1644L17.9113 22.1644Z" stroke="black" stroke-width="1.33018"/>
<path fill-rule="evenodd" clip-rule="evenodd" d="M17.9157 27.8488C16.0454 24.6186 14.7721 21.3483 14.2405 18.6343C13.6007 15.3643 14.0531 12.8641 15.3415 12.1183C16.6841 11.341 19.2242 12.2427 21.8893 14.6091C23.9043 16.3981 25.9734 19.0894 27.7489 22.1563C29.5692 25.3007 30.9335 28.4863 31.4643 31.1673C32.1358 34.5599 31.5923 37.1522 30.2753 37.9146C28.9973 38.6544 26.6588 37.8711 24.1653 35.7253C22.0585 33.9124 19.8044 31.1111 17.9157 27.8487V27.8488Z" stroke="black" stroke-width="1.33018"/>
<path fill-rule="evenodd" clip-rule="evenodd" d="M53.696 32.0779L50.288 26.9291C52.0104 26.7771 53.5624 25.5291 53.5624 23.2491C53.5624 20.9291 51.916 19.4443 49.6064 19.4443H44.5344V32.0683H46.1056V27.0523H48.6232L51.8408 32.0683L53.696 32.0779ZM49.4184 25.6803H46.1064V20.8539H49.4184C50.9144 20.8539 51.936 21.8379 51.936 23.2579C51.936 24.6779 50.9136 25.6819 49.4184 25.6819V25.6803ZM59.5448 32.3043C61.0408 32.3043 62.2704 31.8123 63.1792 30.9043L62.4976 29.9763C61.7776 30.7147 60.7184 31.1307 59.6776 31.1307C57.7096 31.1307 56.4976 29.6923 56.384 27.9707H63.784V27.6107C63.784 24.8667 62.156 22.7083 59.392 22.7083C56.78 22.7083 54.888 24.8475 54.888 27.4971C54.888 30.3555 56.8376 32.2971 59.544 32.2971L59.5448 32.3043ZM62.3848 26.9283H56.3848C56.4608 25.5283 57.4248 23.8803 59.3752 23.8803C61.4576 23.8803 62.3656 25.5651 62.3848 26.9283ZM73.212 32.0771V25.7931C73.212 23.5787 71.604 22.7075 69.6728 22.7075C68.1768 22.7075 67.004 23.1995 66.02 24.2219L66.6824 25.2059C67.496 24.3355 68.3864 23.9379 69.484 23.9379C70.8088 23.9379 71.7936 24.6379 71.7936 25.8683V27.5147C71.0552 26.6627 70.0144 26.2651 68.7648 26.2651C67.2128 26.2651 65.5648 27.2307 65.5648 29.2747C65.5648 31.2619 67.2112 32.3035 68.7648 32.3035C69.9952 32.3035 71.0368 31.8683 71.7936 31.0355V32.0755L73.212 32.0771ZM69.276 31.2819C67.9512 31.2819 67.0232 30.4499 67.0232 29.2947C67.0232 28.1211 67.9512 27.2883 69.276 27.2883C70.2792 27.2883 71.244 27.6667 71.7936 28.4243V30.1467C71.2448 30.9035 70.2792 31.2827 69.276 31.2827V31.2819ZM80.076 32.3043C81.7416 32.3043 82.7256 31.6227 83.4264 30.7147L82.48 29.8443C81.8744 30.6579 81.0984 31.0363 80.16 31.0363C78.2104 31.0363 77 29.5219 77 27.4971C77 25.4723 78.2112 23.9771 80.16 23.9771C81.1064 23.9771 81.8824 24.3371 82.48 25.1691L83.4264 24.2987C82.7264 23.3899 81.7416 22.7091 80.076 22.7091C77.3504 22.7091 75.5144 24.7915 75.5144 27.4979C75.5144 30.2235 77.3504 32.2979 80.076 32.2979V32.3043ZM87.724 32.3043C88.556 32.3043 89.068 32.0579 89.428 31.7179L89.012 30.6579C88.8224 30.8659 88.452 31.0363 88.0464 31.0363C87.4224 31.0363 87.1184 30.5443 87.1184 29.8627V24.1843H88.9744V22.9355H87.1184V20.4371H85.6984V22.9355H84.184V24.1851H85.6984V30.1667C85.6984 31.5299 86.38 32.3059 87.724 32.3059V32.3043Z" fill="black"/>
</svg>
