<svg width="50" height="50" viewBox="0 0 50 50" fill="none" xmlns="http://www.w3.org/2000/svg">
<path fill-rule="evenodd" clip-rule="evenodd" d="M25.291 20.0364H34.2V11.8H16.7812L25.291 20.0364ZM24.709 21.3818H15.8V30.014L24.3 38.2408V29.6182H33.2188L24.709 21.3818ZM15.1 10H34.9C35.1917 10 35.4715 10.1188 35.6778 10.3302C35.8841 10.5416 36 10.8283 36 11.1273V20.7091C36 21.0081 35.8841 21.2948 35.6778 21.5062C35.4715 21.7176 35.1917 21.8364 34.9 21.8364H27.7668L35.6553 29.4714C35.8154 29.6264 35.9264 29.827 35.974 30.0474C36.0216 30.2677 36.0035 30.4977 35.9222 30.7074C35.8408 30.9171 35.6999 31.097 35.5176 31.2237C35.3354 31.3504 35.1202 31.4182 34.9 31.4182H26.1V39.8727C26.1 40.0929 26.0371 40.3083 25.919 40.4923C25.8008 40.6763 25.6327 40.8208 25.4354 40.9079C25.2381 40.9951 25.0201 41.0211 24.8085 40.9828C24.5969 40.9445 24.4009 40.8435 24.2447 40.6922L14.3447 31.1104C14.2358 31.0051 14.1491 30.878 14.0898 30.7371C14.0306 30.5962 14 30.4444 14 30.2909V20.7091C14 20.4101 14.1159 20.1234 14.3222 19.912C14.5285 19.7006 14.8083 19.5818 15.1 19.5818H22.2332L14.3447 11.9468C14.1846 11.7918 14.0736 11.5912 14.026 11.3708C13.9784 11.1504 13.9965 10.9205 14.0778 10.7108C14.1592 10.5011 14.3001 10.3212 14.4824 10.1945C14.6646 10.0677 14.8798 10 15.1 10Z" fill="black"/>
</svg>
