<svg width="167" height="50" viewBox="0 0 167 50" fill="none" xmlns="http://www.w3.org/2000/svg">
<path d="M25.4946 27.6059C27.079 27.6059 28.3634 26.3214 28.3634 24.737C28.3634 23.1526 27.079 21.8682 25.4946 21.8682C23.9102 21.8682 22.6257 23.1526 22.6257 24.737C22.6257 26.3214 23.9102 27.6059 25.4946 27.6059Z" fill="black"/>
<path fill-rule="evenodd" clip-rule="evenodd" d="M25.4946 18.9043C29.3464 18.9043 32.9247 19.457 35.6226 20.3858C38.8733 21.5049 40.872 23.2013 40.872 24.7373C40.872 26.3379 38.7538 28.14 35.263 29.2966C32.6239 30.171 29.151 30.6274 25.4946 30.6274C21.7458 30.6274 18.1959 30.199 15.5271 29.287C12.1505 28.1329 10.1167 26.3074 10.1167 24.7373C10.1167 23.2137 12.025 21.5305 15.23 20.4131C17.938 19.469 21.6046 18.9043 25.4941 18.9043H25.4946Z" stroke="black" stroke-width="1.37246"/>
<path fill-rule="evenodd" clip-rule="evenodd" d="M20.417 21.8362C22.3413 18.4995 24.6076 15.6759 26.7601 13.8027C29.3535 11.5458 31.8214 10.6619 33.152 11.4292C34.5386 12.2288 35.0415 14.9641 34.2995 18.5658C33.7391 21.2889 32.399 24.5253 30.5724 27.6927C28.6995 30.9402 26.5551 33.8013 24.4319 35.6571C21.7453 38.0056 19.1479 38.8555 17.7878 38.0711C16.4679 37.3105 15.9632 34.8161 16.5963 31.4814C17.1313 28.6638 18.4739 25.2055 20.4164 21.8361L20.417 21.8362Z" stroke="black" stroke-width="1.37246"/>
<path fill-rule="evenodd" clip-rule="evenodd" d="M20.4216 27.7013C18.4918 24.3684 17.178 20.9941 16.6296 18.1939C15.9694 14.8199 16.4362 12.2402 17.7655 11.4707C19.1508 10.6687 21.7717 11.599 24.5215 14.0407C26.6005 15.8866 28.7354 18.6634 30.5674 21.8279C32.4456 25.0722 33.8533 28.3591 34.4009 31.1253C35.0938 34.6258 34.533 37.3005 33.1741 38.0871C31.8555 38.8504 29.4427 38.0423 26.8699 35.8283C24.6961 33.9577 22.3704 31.0673 20.4216 27.7013V27.7013Z" stroke="black" stroke-width="1.37246"/>
<path d="M48.692 31.3809H50.1035V25.252H51.6079L56.8267 31.3809H58.6653L53.4651 25.2706C55.6009 25.1034 56.901 23.7477 56.901 21.7419C56.901 19.5875 55.4152 18.1946 53.0008 18.1946H48.692V31.3809ZM50.1035 23.952V19.5132H52.8336C54.5051 19.5132 55.4709 20.2747 55.4709 21.7419C55.4709 23.2091 54.5051 23.952 52.8336 23.952H50.1035ZM63.5352 31.5666C65.4667 31.5666 66.841 30.6937 67.6582 29.3008L66.5996 28.6136C65.9681 29.7094 65.0581 30.3594 63.5352 30.3594C61.5108 30.3594 60.1179 28.8736 60.0993 26.9607H67.9368V26.6078C67.9182 23.6362 65.9867 21.909 63.5723 21.909C60.7493 21.909 58.7621 24.0448 58.7621 26.7378C58.7621 29.4122 60.6193 31.5666 63.5352 31.5666ZM63.5166 23.1162C65.0767 23.1162 66.3581 24.1377 66.581 25.8092H60.2107C60.5265 24.1191 61.9751 23.1162 63.5166 23.1162ZM73.8062 31.5666C75.2363 31.5666 76.5735 30.8237 77.2421 29.8208V31.3809H78.5421V22.0947H77.2421V23.6548C76.5735 22.6519 75.2363 21.909 73.8062 21.909C71.1689 21.909 69.1817 24.082 69.1817 26.7378C69.1817 29.3936 71.1689 31.5666 73.8062 31.5666ZM73.9362 30.3594C71.9118 30.3594 70.5189 28.7436 70.5189 26.7378C70.5189 24.732 71.9118 23.1162 73.9362 23.1162C75.9606 23.1162 77.3535 24.732 77.3535 26.7378C77.3535 28.7436 75.9606 30.3594 73.9362 30.3594ZM85.4285 31.5666C87.3415 31.5666 88.8644 30.5823 89.6816 29.1336L88.5487 28.4836C87.9915 29.5979 86.8772 30.3594 85.4285 30.3594C83.3113 30.3594 81.9184 28.725 81.9184 26.7378C81.9184 24.7506 83.3113 23.1162 85.4285 23.1162C86.8772 23.1162 87.9915 23.8777 88.5487 24.992L89.6816 24.342C88.8644 22.8933 87.3415 21.909 85.4285 21.909C82.6055 21.909 80.5812 24.082 80.5812 26.7378C80.5812 29.3936 82.6055 31.5666 85.4285 31.5666ZM94.8518 31.4737C95.3718 31.4737 95.8361 31.3809 96.2261 31.2323V30.0622C95.9289 30.1737 95.4275 30.2665 95.0561 30.2665C94.0717 30.2665 93.5146 29.8765 93.5146 28.6879V23.3205H96.2261V22.0947H93.5146V19.5132H92.2145V22.0947H90.2273V23.3205H92.2145V28.7993C92.2145 30.6194 93.3474 31.4737 94.8518 31.4737ZM113.467 31.3809V18.1946H112.055V28.985L103.642 18.1946H102.398V31.3809H103.809V20.5904L112.222 31.3809H113.467ZM120.23 31.5666C121.66 31.5666 122.997 30.8237 123.665 29.8208V31.3809H124.966V22.0947H123.665V23.6548C122.997 22.6519 121.66 21.909 120.23 21.909C117.592 21.909 115.605 24.082 115.605 26.7378C115.605 29.3936 117.592 31.5666 120.23 31.5666ZM120.36 30.3594C118.335 30.3594 116.942 28.7436 116.942 26.7378C116.942 24.732 118.335 23.1162 120.36 23.1162C122.384 23.1162 123.777 24.732 123.777 26.7378C123.777 28.7436 122.384 30.3594 120.36 30.3594ZM131.109 31.4737C131.629 31.4737 132.093 31.3809 132.483 31.2323V30.0622C132.186 30.1737 131.685 30.2665 131.313 30.2665C130.329 30.2665 129.772 29.8765 129.772 28.6879V23.3205H132.483V22.0947H129.772V19.5132H128.472V22.0947H126.485V23.3205H128.472V28.7993C128.472 30.6194 129.605 31.4737 131.109 31.4737ZM134.901 19.3089C135.44 19.3089 135.867 18.8632 135.867 18.3246C135.867 17.786 135.44 17.3402 134.901 17.3402C134.344 17.3402 133.898 17.786 133.898 18.3246C133.898 18.8632 134.344 19.3089 134.901 19.3089ZM134.233 31.3809H135.533V22.0947H134.233V31.3809ZM141.256 31.3809H142.278L146.624 22.0947H145.157L141.758 29.4679L138.359 22.0947H136.911L141.256 31.3809ZM151.848 31.5666C153.779 31.5666 155.154 30.6937 155.971 29.3008L154.912 28.6136C154.281 29.7094 153.371 30.3594 151.848 30.3594C149.823 30.3594 148.43 28.8736 148.412 26.9607H156.249V26.6078C156.231 23.6362 154.299 21.909 151.885 21.909C149.062 21.909 147.075 24.0448 147.075 26.7378C147.075 29.4122 148.932 31.5666 151.848 31.5666ZM151.829 23.1162C153.389 23.1162 154.671 24.1377 154.894 25.8092H148.523C148.839 24.1191 150.288 23.1162 151.829 23.1162Z" fill="black"/>
</svg>
