<svg xmlns="http://www.w3.org/2000/svg" width="264" height="58"><defs><clipPath id="a"><path d="M264 0v58H0V0h264z"/></clipPath><clipPath id="b"><path d="M45.666 0a3.176 3.176 0 0 1 3.172 3.171v21.105a2.111 2.111 0 0 0 3.793 1.261L67.803 5.12A12.686 12.686 0 0 1 77.983 0h2.285a3.169 3.169 0 0 1 3.134 2.702l2.845 18.995a3.17 3.17 0 0 1-3.134 3.636h-4.519a6.341 6.341 0 0 0-5.092 2.56L56.433 50.88A12.682 12.682 0 0 1 46.25 56H40.61a3.168 3.168 0 0 1-3.167-3.167v-21.11a2.114 2.114 0 0 0-3.793-1.26L18.48 50.88A12.678 12.678 0 0 1 8.299 56H6.02a3.176 3.176 0 0 1-3.14-2.698L.036 34.307a3.17 3.17 0 0 1 3.134-3.64h4.523a6.33 6.33 0 0 0 5.088-2.56L29.849 5.12A12.683 12.683 0 0 1 40.029 0h5.637zm187.188 17.962c9.606 0 17.007 7.357 17.007 17.094 0 9.737-7.335 17.005-17.007 17.005s-17.007-7.306-17.007-17.033c0-9.728 7.335-17.066 17.007-17.066zm-46.47-13.269v18.54c2.276-3.403 5.804-5.271 10.336-5.271 8.473 0 15.206 7.618 15.206 17.014 0 9.395-6.733 17.066-15.206 17.066-4.532 0-8.07-1.868-10.336-5.267v4.598h-9.407V4.693h9.407zm-62.927 0l19.008 27.21V4.694h9.872v46.68h-8.27l-19.145-27.206v27.206h-9.871V4.693h8.406zm45.868 13.937v32.743h-9.402V18.63h9.402zM264 4.688v46.68h-9.402V4.688H264zm-67.933 22.157a8.172 8.172 0 0 0-9.683 8.135c0 4.59 3.599 8.06 8.203 8.06a8.17 8.17 0 0 0 5.692-13.994 8.17 8.17 0 0 0-4.212-2.2zm36.787.124c-4.47 0-7.804 3.399-7.804 8.059 0 4.532 3.404 8.002 7.804 8.002s7.804-3.47 7.804-8.002c0-4.66-3.404-8.06-7.804-8.06zm-68.266-24.21a5.765 5.765 0 0 1 5.737 5.689 5.69 5.69 0 1 1-5.737-5.689z"/></clipPath></defs><g clip-path="url(#a)"><g clip-path="url(#b)" transform="translate(0 1)"><path fill="#141414" d="M0 0L264 0 264 56 0 56 0 0z"/></g></g></svg>